<mxfile host="app.diagrams.net" modified="2024-02-17T14:29:36.730Z" agent="Mozilla/5.0 (Macintosh; Intel Mac OS X 10.15; rv:122.0) Gecko/20100101 Firefox/122.0" etag="Lsh6CsuQyOg_8xcJibPI" version="22.1.21" type="github">
  <diagram name="Page-1" id="Py248u8t0kP19_4Gev60">
    <mxGraphModel dx="1578" dy="975" grid="1" gridSize="10" guides="1" tooltips="1" connect="1" arrows="1" fold="1" page="1" pageScale="1" pageWidth="3300" pageHeight="4681" math="0" shadow="0">
      <root>
        <mxCell id="0" />
        <mxCell id="1" parent="0" />
        <mxCell id="s6z-DPjrk-eeVtkhGJ_P-343" value="" style="rounded=1;whiteSpace=wrap;html=1;fillColor=#a0522d;fontColor=#ffffff;strokeColor=#6D1F00;" vertex="1" parent="1">
          <mxGeometry x="875" y="609.94" width="130" height="140" as="geometry" />
        </mxCell>
        <mxCell id="s6z-DPjrk-eeVtkhGJ_P-340" value="" style="rounded=1;whiteSpace=wrap;html=1;fillColor=#a20025;fontColor=#ffffff;strokeColor=#6F0000;" vertex="1" parent="1">
          <mxGeometry x="875" y="509.96" width="130" height="90.04" as="geometry" />
        </mxCell>
        <mxCell id="s6z-DPjrk-eeVtkhGJ_P-335" value="" style="rounded=1;whiteSpace=wrap;html=1;fillColor=#60a917;fontColor=#ffffff;strokeColor=#2D7600;" vertex="1" parent="1">
          <mxGeometry x="875" y="100.04" width="130" height="199.96" as="geometry" />
        </mxCell>
        <mxCell id="s6z-DPjrk-eeVtkhGJ_P-326" value="" style="rounded=1;whiteSpace=wrap;html=1;fillColor=#6a00ff;fontColor=#ffffff;strokeColor=#3700CC;" vertex="1" parent="1">
          <mxGeometry x="875" y="310" width="130" height="190" as="geometry" />
        </mxCell>
        <mxCell id="s6z-DPjrk-eeVtkhGJ_P-323" value="" style="rounded=1;whiteSpace=wrap;html=1;fillColor=#f8cecc;strokeColor=#b85450;" vertex="1" parent="1">
          <mxGeometry x="690" y="499.94" width="140" height="60.06" as="geometry" />
        </mxCell>
        <mxCell id="s6z-DPjrk-eeVtkhGJ_P-320" value="" style="rounded=1;whiteSpace=wrap;html=1;fillColor=#e1d5e7;strokeColor=#9673a6;" vertex="1" parent="1">
          <mxGeometry x="690" y="100" width="140" height="300" as="geometry" />
        </mxCell>
        <mxCell id="s6z-DPjrk-eeVtkhGJ_P-318" value="" style="rounded=1;whiteSpace=wrap;html=1;fillColor=#ffe6cc;strokeColor=#d79b00;" vertex="1" parent="1">
          <mxGeometry x="690" y="409.96" width="140" height="90.04" as="geometry" />
        </mxCell>
        <mxCell id="s6z-DPjrk-eeVtkhGJ_P-313" value="" style="rounded=1;whiteSpace=wrap;html=1;fillColor=#008a00;fontColor=#ffffff;strokeColor=#005700;" vertex="1" parent="1">
          <mxGeometry x="690" y="560" width="140" height="400" as="geometry" />
        </mxCell>
        <mxCell id="s6z-DPjrk-eeVtkhGJ_P-28" value="&lt;font style=&quot;font-size: 18px;&quot;&gt;Touristic fees&lt;/font&gt;" style="rounded=0;whiteSpace=wrap;html=1;" vertex="1" parent="1">
          <mxGeometry x="120" y="40" width="120" height="40" as="geometry" />
        </mxCell>
        <mxCell id="s6z-DPjrk-eeVtkhGJ_P-33" style="edgeStyle=orthogonalEdgeStyle;rounded=0;orthogonalLoop=1;jettySize=auto;html=1;" edge="1" parent="1" source="s6z-DPjrk-eeVtkhGJ_P-34">
          <mxGeometry relative="1" as="geometry">
            <mxPoint x="120" y="80.04000000000002" as="targetPoint" />
          </mxGeometry>
        </mxCell>
        <mxCell id="s6z-DPjrk-eeVtkhGJ_P-34" value="touristFirstName" style="ellipse;whiteSpace=wrap;html=1;" vertex="1" parent="1">
          <mxGeometry x="140" y="110" width="120" height="39.96" as="geometry" />
        </mxCell>
        <mxCell id="s6z-DPjrk-eeVtkhGJ_P-41" style="edgeStyle=orthogonalEdgeStyle;rounded=0;orthogonalLoop=1;jettySize=auto;html=1;endArrow=none;endFill=0;" edge="1" parent="1" source="s6z-DPjrk-eeVtkhGJ_P-42">
          <mxGeometry relative="1" as="geometry">
            <mxPoint x="120" y="130.00000000000003" as="targetPoint" />
          </mxGeometry>
        </mxCell>
        <mxCell id="s6z-DPjrk-eeVtkhGJ_P-42" value="touristLastName" style="ellipse;whiteSpace=wrap;html=1;" vertex="1" parent="1">
          <mxGeometry x="140" y="159.96" width="120" height="39.96" as="geometry" />
        </mxCell>
        <mxCell id="s6z-DPjrk-eeVtkhGJ_P-43" style="edgeStyle=orthogonalEdgeStyle;rounded=0;orthogonalLoop=1;jettySize=auto;html=1;endArrow=none;endFill=0;" edge="1" parent="1" source="s6z-DPjrk-eeVtkhGJ_P-44">
          <mxGeometry relative="1" as="geometry">
            <mxPoint x="120" y="180.00000000000003" as="targetPoint" />
          </mxGeometry>
        </mxCell>
        <mxCell id="s6z-DPjrk-eeVtkhGJ_P-44" value="touristPhoneNumber" style="ellipse;whiteSpace=wrap;html=1;" vertex="1" parent="1">
          <mxGeometry x="140" y="209.96" width="120" height="39.96" as="geometry" />
        </mxCell>
        <mxCell id="s6z-DPjrk-eeVtkhGJ_P-45" style="edgeStyle=orthogonalEdgeStyle;rounded=0;orthogonalLoop=1;jettySize=auto;html=1;endArrow=none;endFill=0;" edge="1" parent="1" source="s6z-DPjrk-eeVtkhGJ_P-46">
          <mxGeometry relative="1" as="geometry">
            <mxPoint x="120" y="230.00000000000003" as="targetPoint" />
          </mxGeometry>
        </mxCell>
        <mxCell id="s6z-DPjrk-eeVtkhGJ_P-46" value="touristClass" style="ellipse;whiteSpace=wrap;html=1;" vertex="1" parent="1">
          <mxGeometry x="140" y="259.96000000000004" width="120" height="39.96" as="geometry" />
        </mxCell>
        <mxCell id="s6z-DPjrk-eeVtkhGJ_P-47" style="edgeStyle=orthogonalEdgeStyle;rounded=0;orthogonalLoop=1;jettySize=auto;html=1;endArrow=none;endFill=0;" edge="1" parent="1" source="s6z-DPjrk-eeVtkhGJ_P-48">
          <mxGeometry relative="1" as="geometry">
            <mxPoint x="120" y="280" as="targetPoint" />
          </mxGeometry>
        </mxCell>
        <mxCell id="s6z-DPjrk-eeVtkhGJ_P-48" value="tourist(No/NickName)" style="ellipse;whiteSpace=wrap;html=1;" vertex="1" parent="1">
          <mxGeometry x="140" y="309.96000000000004" width="120" height="39.96" as="geometry" />
        </mxCell>
        <mxCell id="s6z-DPjrk-eeVtkhGJ_P-49" style="edgeStyle=orthogonalEdgeStyle;rounded=0;orthogonalLoop=1;jettySize=auto;html=1;endArrow=none;endFill=0;" edge="1" parent="1" source="s6z-DPjrk-eeVtkhGJ_P-50">
          <mxGeometry relative="1" as="geometry">
            <mxPoint x="120" y="330" as="targetPoint" />
          </mxGeometry>
        </mxCell>
        <mxCell id="s6z-DPjrk-eeVtkhGJ_P-50" value="touristHealthStatus" style="ellipse;whiteSpace=wrap;html=1;" vertex="1" parent="1">
          <mxGeometry x="140" y="359.96000000000004" width="120" height="39.96" as="geometry" />
        </mxCell>
        <mxCell id="s6z-DPjrk-eeVtkhGJ_P-51" style="edgeStyle=orthogonalEdgeStyle;rounded=0;orthogonalLoop=1;jettySize=auto;html=1;endArrow=none;endFill=0;" edge="1" parent="1" source="s6z-DPjrk-eeVtkhGJ_P-52">
          <mxGeometry relative="1" as="geometry">
            <mxPoint x="120" y="380" as="targetPoint" />
          </mxGeometry>
        </mxCell>
        <mxCell id="s6z-DPjrk-eeVtkhGJ_P-52" value="mealType" style="ellipse;whiteSpace=wrap;html=1;" vertex="1" parent="1">
          <mxGeometry x="140" y="409.96000000000004" width="120" height="39.96" as="geometry" />
        </mxCell>
        <mxCell id="s6z-DPjrk-eeVtkhGJ_P-53" style="edgeStyle=orthogonalEdgeStyle;rounded=0;orthogonalLoop=1;jettySize=auto;html=1;endArrow=none;endFill=0;" edge="1" parent="1" source="s6z-DPjrk-eeVtkhGJ_P-54">
          <mxGeometry relative="1" as="geometry">
            <mxPoint x="120" y="430" as="targetPoint" />
          </mxGeometry>
        </mxCell>
        <mxCell id="s6z-DPjrk-eeVtkhGJ_P-54" value="drinksType" style="ellipse;whiteSpace=wrap;html=1;" vertex="1" parent="1">
          <mxGeometry x="140" y="459.96000000000004" width="120" height="39.96" as="geometry" />
        </mxCell>
        <mxCell id="s6z-DPjrk-eeVtkhGJ_P-55" style="edgeStyle=orthogonalEdgeStyle;rounded=0;orthogonalLoop=1;jettySize=auto;html=1;endArrow=none;endFill=0;" edge="1" parent="1" source="s6z-DPjrk-eeVtkhGJ_P-56">
          <mxGeometry relative="1" as="geometry">
            <mxPoint x="120" y="480" as="targetPoint" />
          </mxGeometry>
        </mxCell>
        <mxCell id="s6z-DPjrk-eeVtkhGJ_P-56" value="personalEquipment" style="ellipse;whiteSpace=wrap;html=1;" vertex="1" parent="1">
          <mxGeometry x="140" y="509.96000000000004" width="120" height="39.96" as="geometry" />
        </mxCell>
        <mxCell id="s6z-DPjrk-eeVtkhGJ_P-57" style="edgeStyle=orthogonalEdgeStyle;rounded=0;orthogonalLoop=1;jettySize=auto;html=1;entryX=1;entryY=0.5;entryDx=0;entryDy=0;" edge="1" parent="1" source="s6z-DPjrk-eeVtkhGJ_P-58" target="s6z-DPjrk-eeVtkhGJ_P-28">
          <mxGeometry relative="1" as="geometry">
            <mxPoint x="310" y="60" as="targetPoint" />
            <Array as="points">
              <mxPoint x="280" y="130" />
              <mxPoint x="280" y="60" />
            </Array>
          </mxGeometry>
        </mxCell>
        <mxCell id="s6z-DPjrk-eeVtkhGJ_P-58" value="feesNo" style="ellipse;whiteSpace=wrap;html=1;" vertex="1" parent="1">
          <mxGeometry x="320" y="110" width="120" height="39.96" as="geometry" />
        </mxCell>
        <mxCell id="s6z-DPjrk-eeVtkhGJ_P-84" style="edgeStyle=orthogonalEdgeStyle;rounded=0;orthogonalLoop=1;jettySize=auto;html=1;endArrow=none;endFill=0;" edge="1" parent="1" source="s6z-DPjrk-eeVtkhGJ_P-85">
          <mxGeometry relative="1" as="geometry">
            <mxPoint x="120" y="530" as="targetPoint" />
          </mxGeometry>
        </mxCell>
        <mxCell id="s6z-DPjrk-eeVtkhGJ_P-85" value="ticketType" style="ellipse;whiteSpace=wrap;html=1;" vertex="1" parent="1">
          <mxGeometry x="140" y="559.96" width="120" height="39.96" as="geometry" />
        </mxCell>
        <mxCell id="s6z-DPjrk-eeVtkhGJ_P-86" style="edgeStyle=orthogonalEdgeStyle;rounded=0;orthogonalLoop=1;jettySize=auto;html=1;endArrow=none;endFill=0;" edge="1" parent="1" source="s6z-DPjrk-eeVtkhGJ_P-87">
          <mxGeometry relative="1" as="geometry">
            <mxPoint x="120" y="580" as="targetPoint" />
          </mxGeometry>
        </mxCell>
        <mxCell id="s6z-DPjrk-eeVtkhGJ_P-87" value="ticketNo" style="ellipse;whiteSpace=wrap;html=1;" vertex="1" parent="1">
          <mxGeometry x="140" y="609.96" width="120" height="39.96" as="geometry" />
        </mxCell>
        <mxCell id="s6z-DPjrk-eeVtkhGJ_P-88" style="edgeStyle=orthogonalEdgeStyle;rounded=0;orthogonalLoop=1;jettySize=auto;html=1;endArrow=none;endFill=0;" edge="1" parent="1" source="s6z-DPjrk-eeVtkhGJ_P-89">
          <mxGeometry relative="1" as="geometry">
            <mxPoint x="120" y="630" as="targetPoint" />
          </mxGeometry>
        </mxCell>
        <mxCell id="s6z-DPjrk-eeVtkhGJ_P-89" value="ticketDateToReg" style="ellipse;whiteSpace=wrap;html=1;" vertex="1" parent="1">
          <mxGeometry x="140" y="659.96" width="120" height="39.96" as="geometry" />
        </mxCell>
        <mxCell id="s6z-DPjrk-eeVtkhGJ_P-90" style="edgeStyle=orthogonalEdgeStyle;rounded=0;orthogonalLoop=1;jettySize=auto;html=1;endArrow=none;endFill=0;" edge="1" parent="1" source="s6z-DPjrk-eeVtkhGJ_P-91">
          <mxGeometry relative="1" as="geometry">
            <mxPoint x="120" y="680" as="targetPoint" />
          </mxGeometry>
        </mxCell>
        <mxCell id="s6z-DPjrk-eeVtkhGJ_P-91" value="ticketGroupNo" style="ellipse;whiteSpace=wrap;html=1;" vertex="1" parent="1">
          <mxGeometry x="140" y="709.96" width="120" height="39.96" as="geometry" />
        </mxCell>
        <mxCell id="s6z-DPjrk-eeVtkhGJ_P-92" style="edgeStyle=orthogonalEdgeStyle;rounded=0;orthogonalLoop=1;jettySize=auto;html=1;endArrow=none;endFill=0;" edge="1" parent="1" source="s6z-DPjrk-eeVtkhGJ_P-93">
          <mxGeometry relative="1" as="geometry">
            <mxPoint x="120" y="730" as="targetPoint" />
          </mxGeometry>
        </mxCell>
        <mxCell id="s6z-DPjrk-eeVtkhGJ_P-93" value="ticketStartTime" style="ellipse;whiteSpace=wrap;html=1;" vertex="1" parent="1">
          <mxGeometry x="140" y="759.96" width="120" height="39.96" as="geometry" />
        </mxCell>
        <mxCell id="s6z-DPjrk-eeVtkhGJ_P-94" style="edgeStyle=orthogonalEdgeStyle;rounded=0;orthogonalLoop=1;jettySize=auto;html=1;endArrow=none;endFill=0;" edge="1" parent="1" source="s6z-DPjrk-eeVtkhGJ_P-95">
          <mxGeometry relative="1" as="geometry">
            <mxPoint x="120" y="780" as="targetPoint" />
          </mxGeometry>
        </mxCell>
        <mxCell id="s6z-DPjrk-eeVtkhGJ_P-95" value="ticketStartTime" style="ellipse;whiteSpace=wrap;html=1;" vertex="1" parent="1">
          <mxGeometry x="140" y="809.96" width="120" height="39.96" as="geometry" />
        </mxCell>
        <mxCell id="s6z-DPjrk-eeVtkhGJ_P-96" style="edgeStyle=orthogonalEdgeStyle;rounded=0;orthogonalLoop=1;jettySize=auto;html=1;endArrow=none;endFill=0;" edge="1" parent="1" source="s6z-DPjrk-eeVtkhGJ_P-97">
          <mxGeometry relative="1" as="geometry">
            <mxPoint x="120" y="830" as="targetPoint" />
          </mxGeometry>
        </mxCell>
        <mxCell id="s6z-DPjrk-eeVtkhGJ_P-97" value="ticketEndTime" style="ellipse;whiteSpace=wrap;html=1;" vertex="1" parent="1">
          <mxGeometry x="140" y="859.96" width="120" height="39.96" as="geometry" />
        </mxCell>
        <mxCell id="s6z-DPjrk-eeVtkhGJ_P-98" style="edgeStyle=orthogonalEdgeStyle;rounded=0;orthogonalLoop=1;jettySize=auto;html=1;endArrow=none;endFill=0;" edge="1" parent="1" source="s6z-DPjrk-eeVtkhGJ_P-99">
          <mxGeometry relative="1" as="geometry">
            <mxPoint x="120" y="880" as="targetPoint" />
          </mxGeometry>
        </mxCell>
        <mxCell id="s6z-DPjrk-eeVtkhGJ_P-99" value="ticketDuration" style="ellipse;whiteSpace=wrap;html=1;" vertex="1" parent="1">
          <mxGeometry x="140" y="909.96" width="120" height="39.96" as="geometry" />
        </mxCell>
        <mxCell id="s6z-DPjrk-eeVtkhGJ_P-157" value="&lt;font style=&quot;font-size: 18px;&quot;&gt;Touristic fees&lt;/font&gt;" style="rounded=0;whiteSpace=wrap;html=1;" vertex="1" parent="1">
          <mxGeometry x="680" y="40" width="120" height="40" as="geometry" />
        </mxCell>
        <mxCell id="s6z-DPjrk-eeVtkhGJ_P-158" style="edgeStyle=orthogonalEdgeStyle;rounded=0;orthogonalLoop=1;jettySize=auto;html=1;" edge="1" parent="1" source="s6z-DPjrk-eeVtkhGJ_P-159">
          <mxGeometry relative="1" as="geometry">
            <mxPoint x="680" y="80.04000000000002" as="targetPoint" />
          </mxGeometry>
        </mxCell>
        <mxCell id="s6z-DPjrk-eeVtkhGJ_P-159" value="touristFirstName" style="ellipse;whiteSpace=wrap;html=1;" vertex="1" parent="1">
          <mxGeometry x="700" y="110" width="120" height="39.96" as="geometry" />
        </mxCell>
        <mxCell id="s6z-DPjrk-eeVtkhGJ_P-160" style="edgeStyle=orthogonalEdgeStyle;rounded=0;orthogonalLoop=1;jettySize=auto;html=1;endArrow=none;endFill=0;" edge="1" parent="1" source="s6z-DPjrk-eeVtkhGJ_P-161">
          <mxGeometry relative="1" as="geometry">
            <mxPoint x="680" y="130.00000000000003" as="targetPoint" />
          </mxGeometry>
        </mxCell>
        <mxCell id="s6z-DPjrk-eeVtkhGJ_P-161" value="touristLastName" style="ellipse;whiteSpace=wrap;html=1;" vertex="1" parent="1">
          <mxGeometry x="700" y="159.96" width="120" height="39.96" as="geometry" />
        </mxCell>
        <mxCell id="s6z-DPjrk-eeVtkhGJ_P-162" style="edgeStyle=orthogonalEdgeStyle;rounded=0;orthogonalLoop=1;jettySize=auto;html=1;endArrow=none;endFill=0;" edge="1" parent="1" source="s6z-DPjrk-eeVtkhGJ_P-163">
          <mxGeometry relative="1" as="geometry">
            <mxPoint x="680" y="180.00000000000003" as="targetPoint" />
          </mxGeometry>
        </mxCell>
        <mxCell id="s6z-DPjrk-eeVtkhGJ_P-163" value="touristPhoneNumber" style="ellipse;whiteSpace=wrap;html=1;" vertex="1" parent="1">
          <mxGeometry x="700" y="209.96" width="120" height="39.96" as="geometry" />
        </mxCell>
        <mxCell id="s6z-DPjrk-eeVtkhGJ_P-164" style="edgeStyle=orthogonalEdgeStyle;rounded=0;orthogonalLoop=1;jettySize=auto;html=1;endArrow=none;endFill=0;" edge="1" parent="1" source="s6z-DPjrk-eeVtkhGJ_P-165">
          <mxGeometry relative="1" as="geometry">
            <mxPoint x="680" y="230.00000000000003" as="targetPoint" />
          </mxGeometry>
        </mxCell>
        <mxCell id="s6z-DPjrk-eeVtkhGJ_P-165" value="touristClass" style="ellipse;whiteSpace=wrap;html=1;" vertex="1" parent="1">
          <mxGeometry x="700" y="259.96000000000004" width="120" height="39.96" as="geometry" />
        </mxCell>
        <mxCell id="s6z-DPjrk-eeVtkhGJ_P-166" style="edgeStyle=orthogonalEdgeStyle;rounded=0;orthogonalLoop=1;jettySize=auto;html=1;endArrow=none;endFill=0;" edge="1" parent="1" source="s6z-DPjrk-eeVtkhGJ_P-167">
          <mxGeometry relative="1" as="geometry">
            <mxPoint x="680" y="280" as="targetPoint" />
          </mxGeometry>
        </mxCell>
        <mxCell id="s6z-DPjrk-eeVtkhGJ_P-167" value="tourist(No/NickName)" style="ellipse;whiteSpace=wrap;html=1;" vertex="1" parent="1">
          <mxGeometry x="700" y="309.96000000000004" width="120" height="39.96" as="geometry" />
        </mxCell>
        <mxCell id="s6z-DPjrk-eeVtkhGJ_P-168" style="edgeStyle=orthogonalEdgeStyle;rounded=0;orthogonalLoop=1;jettySize=auto;html=1;endArrow=none;endFill=0;" edge="1" parent="1" source="s6z-DPjrk-eeVtkhGJ_P-169">
          <mxGeometry relative="1" as="geometry">
            <mxPoint x="680" y="330" as="targetPoint" />
          </mxGeometry>
        </mxCell>
        <mxCell id="s6z-DPjrk-eeVtkhGJ_P-169" value="touristPaymentStatus" style="ellipse;whiteSpace=wrap;html=1;" vertex="1" parent="1">
          <mxGeometry x="700" y="359.96000000000004" width="120" height="39.96" as="geometry" />
        </mxCell>
        <mxCell id="s6z-DPjrk-eeVtkhGJ_P-170" style="edgeStyle=orthogonalEdgeStyle;rounded=0;orthogonalLoop=1;jettySize=auto;html=1;endArrow=none;endFill=0;" edge="1" parent="1" source="s6z-DPjrk-eeVtkhGJ_P-171">
          <mxGeometry relative="1" as="geometry">
            <mxPoint x="680" y="380" as="targetPoint" />
          </mxGeometry>
        </mxCell>
        <mxCell id="s6z-DPjrk-eeVtkhGJ_P-171" value="mealType" style="ellipse;whiteSpace=wrap;html=1;" vertex="1" parent="1">
          <mxGeometry x="700" y="409.96000000000004" width="120" height="39.96" as="geometry" />
        </mxCell>
        <mxCell id="s6z-DPjrk-eeVtkhGJ_P-172" style="edgeStyle=orthogonalEdgeStyle;rounded=0;orthogonalLoop=1;jettySize=auto;html=1;endArrow=none;endFill=0;" edge="1" parent="1" source="s6z-DPjrk-eeVtkhGJ_P-173">
          <mxGeometry relative="1" as="geometry">
            <mxPoint x="680" y="430" as="targetPoint" />
          </mxGeometry>
        </mxCell>
        <mxCell id="s6z-DPjrk-eeVtkhGJ_P-173" value="drinksType" style="ellipse;whiteSpace=wrap;html=1;" vertex="1" parent="1">
          <mxGeometry x="700" y="459.96000000000004" width="120" height="39.96" as="geometry" />
        </mxCell>
        <mxCell id="s6z-DPjrk-eeVtkhGJ_P-174" style="edgeStyle=orthogonalEdgeStyle;rounded=0;orthogonalLoop=1;jettySize=auto;html=1;endArrow=none;endFill=0;" edge="1" parent="1" source="s6z-DPjrk-eeVtkhGJ_P-175">
          <mxGeometry relative="1" as="geometry">
            <mxPoint x="680" y="480" as="targetPoint" />
          </mxGeometry>
        </mxCell>
        <mxCell id="s6z-DPjrk-eeVtkhGJ_P-175" value="personalEquipment" style="ellipse;whiteSpace=wrap;html=1;" vertex="1" parent="1">
          <mxGeometry x="700" y="509.96000000000004" width="120" height="39.96" as="geometry" />
        </mxCell>
        <mxCell id="s6z-DPjrk-eeVtkhGJ_P-176" style="edgeStyle=orthogonalEdgeStyle;rounded=0;orthogonalLoop=1;jettySize=auto;html=1;entryX=1;entryY=0.5;entryDx=0;entryDy=0;" edge="1" parent="1" source="s6z-DPjrk-eeVtkhGJ_P-177" target="s6z-DPjrk-eeVtkhGJ_P-157">
          <mxGeometry relative="1" as="geometry">
            <mxPoint x="870" y="60" as="targetPoint" />
            <Array as="points">
              <mxPoint x="840" y="130" />
              <mxPoint x="840" y="60" />
            </Array>
          </mxGeometry>
        </mxCell>
        <mxCell id="s6z-DPjrk-eeVtkhGJ_P-177" value="feesNo" style="ellipse;whiteSpace=wrap;html=1;" vertex="1" parent="1">
          <mxGeometry x="880" y="110" width="120" height="39.96" as="geometry" />
        </mxCell>
        <mxCell id="s6z-DPjrk-eeVtkhGJ_P-178" style="edgeStyle=orthogonalEdgeStyle;rounded=0;orthogonalLoop=1;jettySize=auto;html=1;endArrow=none;endFill=0;" edge="1" parent="1" source="s6z-DPjrk-eeVtkhGJ_P-179">
          <mxGeometry relative="1" as="geometry">
            <mxPoint x="840" y="280.04" as="targetPoint" />
          </mxGeometry>
        </mxCell>
        <mxCell id="s6z-DPjrk-eeVtkhGJ_P-179" value="gatheringPlaceName" style="ellipse;whiteSpace=wrap;html=1;" vertex="1" parent="1">
          <mxGeometry x="880" y="310" width="120" height="39.96" as="geometry" />
        </mxCell>
        <mxCell id="s6z-DPjrk-eeVtkhGJ_P-180" style="edgeStyle=orthogonalEdgeStyle;rounded=0;orthogonalLoop=1;jettySize=auto;html=1;endArrow=none;endFill=0;" edge="1" parent="1" source="s6z-DPjrk-eeVtkhGJ_P-181">
          <mxGeometry relative="1" as="geometry">
            <mxPoint x="840" y="330.04" as="targetPoint" />
          </mxGeometry>
        </mxCell>
        <mxCell id="s6z-DPjrk-eeVtkhGJ_P-181" value="inGatheringPlace" style="ellipse;whiteSpace=wrap;html=1;" vertex="1" parent="1">
          <mxGeometry x="880" y="360" width="120" height="39.96" as="geometry" />
        </mxCell>
        <mxCell id="s6z-DPjrk-eeVtkhGJ_P-182" style="edgeStyle=orthogonalEdgeStyle;rounded=0;orthogonalLoop=1;jettySize=auto;html=1;endArrow=none;endFill=0;" edge="1" parent="1" source="s6z-DPjrk-eeVtkhGJ_P-183">
          <mxGeometry relative="1" as="geometry">
            <mxPoint x="840" y="380.04" as="targetPoint" />
          </mxGeometry>
        </mxCell>
        <mxCell id="s6z-DPjrk-eeVtkhGJ_P-183" value="outGatheringPlace" style="ellipse;whiteSpace=wrap;html=1;" vertex="1" parent="1">
          <mxGeometry x="880" y="410" width="120" height="39.96" as="geometry" />
        </mxCell>
        <mxCell id="s6z-DPjrk-eeVtkhGJ_P-184" style="edgeStyle=orthogonalEdgeStyle;rounded=0;orthogonalLoop=1;jettySize=auto;html=1;endArrow=none;endFill=0;" edge="1" parent="1" source="s6z-DPjrk-eeVtkhGJ_P-185">
          <mxGeometry relative="1" as="geometry">
            <mxPoint x="840" y="430.03999999999996" as="targetPoint" />
          </mxGeometry>
        </mxCell>
        <mxCell id="s6z-DPjrk-eeVtkhGJ_P-185" value="outGatheringPlace" style="ellipse;whiteSpace=wrap;html=1;" vertex="1" parent="1">
          <mxGeometry x="880" y="460" width="120" height="39.96" as="geometry" />
        </mxCell>
        <mxCell id="s6z-DPjrk-eeVtkhGJ_P-186" style="edgeStyle=orthogonalEdgeStyle;rounded=0;orthogonalLoop=1;jettySize=auto;html=1;endArrow=none;endFill=0;" edge="1" parent="1" source="s6z-DPjrk-eeVtkhGJ_P-187">
          <mxGeometry relative="1" as="geometry">
            <mxPoint x="840" y="130" as="targetPoint" />
          </mxGeometry>
        </mxCell>
        <mxCell id="s6z-DPjrk-eeVtkhGJ_P-187" value="touristicFeesLabel" style="ellipse;whiteSpace=wrap;html=1;" vertex="1" parent="1">
          <mxGeometry x="880" y="159.96000000000004" width="120" height="39.96" as="geometry" />
        </mxCell>
        <mxCell id="s6z-DPjrk-eeVtkhGJ_P-188" style="edgeStyle=orthogonalEdgeStyle;rounded=0;orthogonalLoop=1;jettySize=auto;html=1;endArrow=none;endFill=0;" edge="1" parent="1" source="s6z-DPjrk-eeVtkhGJ_P-189">
          <mxGeometry relative="1" as="geometry">
            <mxPoint x="840" y="480" as="targetPoint" />
          </mxGeometry>
        </mxCell>
        <mxCell id="s6z-DPjrk-eeVtkhGJ_P-189" value="startDatePayFees" style="ellipse;whiteSpace=wrap;html=1;" vertex="1" parent="1">
          <mxGeometry x="880" y="509.96" width="120" height="39.96" as="geometry" />
        </mxCell>
        <mxCell id="s6z-DPjrk-eeVtkhGJ_P-190" style="edgeStyle=orthogonalEdgeStyle;rounded=0;orthogonalLoop=1;jettySize=auto;html=1;endArrow=none;endFill=0;" edge="1" parent="1" source="s6z-DPjrk-eeVtkhGJ_P-191">
          <mxGeometry relative="1" as="geometry">
            <mxPoint x="840" y="580" as="targetPoint" />
          </mxGeometry>
        </mxCell>
        <mxCell id="s6z-DPjrk-eeVtkhGJ_P-191" value="&lt;div&gt;guideFirstName&lt;/div&gt;" style="ellipse;whiteSpace=wrap;html=1;" vertex="1" parent="1">
          <mxGeometry x="880" y="609.96" width="120" height="39.96" as="geometry" />
        </mxCell>
        <mxCell id="s6z-DPjrk-eeVtkhGJ_P-192" style="edgeStyle=orthogonalEdgeStyle;rounded=0;orthogonalLoop=1;jettySize=auto;html=1;endArrow=none;endFill=0;" edge="1" parent="1" source="s6z-DPjrk-eeVtkhGJ_P-193">
          <mxGeometry relative="1" as="geometry">
            <mxPoint x="840" y="630" as="targetPoint" />
          </mxGeometry>
        </mxCell>
        <mxCell id="s6z-DPjrk-eeVtkhGJ_P-193" value="&lt;div&gt;guideLastName&lt;/div&gt;" style="ellipse;whiteSpace=wrap;html=1;" vertex="1" parent="1">
          <mxGeometry x="880" y="659.96" width="120" height="39.96" as="geometry" />
        </mxCell>
        <mxCell id="s6z-DPjrk-eeVtkhGJ_P-194" style="edgeStyle=orthogonalEdgeStyle;rounded=0;orthogonalLoop=1;jettySize=auto;html=1;endArrow=none;endFill=0;" edge="1" parent="1" source="s6z-DPjrk-eeVtkhGJ_P-195">
          <mxGeometry relative="1" as="geometry">
            <mxPoint x="840" y="680" as="targetPoint" />
          </mxGeometry>
        </mxCell>
        <mxCell id="s6z-DPjrk-eeVtkhGJ_P-195" value="&lt;div&gt;guidePhone&lt;/div&gt;" style="ellipse;whiteSpace=wrap;html=1;" vertex="1" parent="1">
          <mxGeometry x="880" y="709.96" width="120" height="39.96" as="geometry" />
        </mxCell>
        <mxCell id="s6z-DPjrk-eeVtkhGJ_P-196" style="edgeStyle=orthogonalEdgeStyle;rounded=0;orthogonalLoop=1;jettySize=auto;html=1;endArrow=none;endFill=0;" edge="1" parent="1" source="s6z-DPjrk-eeVtkhGJ_P-197">
          <mxGeometry relative="1" as="geometry">
            <mxPoint x="840" y="730" as="targetPoint" />
          </mxGeometry>
        </mxCell>
        <mxCell id="s6z-DPjrk-eeVtkhGJ_P-197" value="groupEquipment" style="ellipse;whiteSpace=wrap;html=1;" vertex="1" parent="1">
          <mxGeometry x="880" y="759.96" width="120" height="39.96" as="geometry" />
        </mxCell>
        <mxCell id="s6z-DPjrk-eeVtkhGJ_P-198" style="edgeStyle=orthogonalEdgeStyle;rounded=0;orthogonalLoop=1;jettySize=auto;html=1;endArrow=none;endFill=0;" edge="1" parent="1" source="s6z-DPjrk-eeVtkhGJ_P-199">
          <mxGeometry relative="1" as="geometry">
            <mxPoint x="680" y="530" as="targetPoint" />
          </mxGeometry>
        </mxCell>
        <mxCell id="s6z-DPjrk-eeVtkhGJ_P-199" value="ticketType" style="ellipse;whiteSpace=wrap;html=1;" vertex="1" parent="1">
          <mxGeometry x="700" y="559.96" width="120" height="39.96" as="geometry" />
        </mxCell>
        <mxCell id="s6z-DPjrk-eeVtkhGJ_P-200" style="edgeStyle=orthogonalEdgeStyle;rounded=0;orthogonalLoop=1;jettySize=auto;html=1;endArrow=none;endFill=0;" edge="1" parent="1" source="s6z-DPjrk-eeVtkhGJ_P-201">
          <mxGeometry relative="1" as="geometry">
            <mxPoint x="680" y="580" as="targetPoint" />
          </mxGeometry>
        </mxCell>
        <mxCell id="s6z-DPjrk-eeVtkhGJ_P-201" value="ticketNo" style="ellipse;whiteSpace=wrap;html=1;" vertex="1" parent="1">
          <mxGeometry x="700" y="609.96" width="120" height="39.96" as="geometry" />
        </mxCell>
        <mxCell id="s6z-DPjrk-eeVtkhGJ_P-202" style="edgeStyle=orthogonalEdgeStyle;rounded=0;orthogonalLoop=1;jettySize=auto;html=1;endArrow=none;endFill=0;" edge="1" parent="1" source="s6z-DPjrk-eeVtkhGJ_P-203">
          <mxGeometry relative="1" as="geometry">
            <mxPoint x="680" y="630" as="targetPoint" />
          </mxGeometry>
        </mxCell>
        <mxCell id="s6z-DPjrk-eeVtkhGJ_P-203" value="ticketDateToReg" style="ellipse;whiteSpace=wrap;html=1;" vertex="1" parent="1">
          <mxGeometry x="700" y="659.96" width="120" height="39.96" as="geometry" />
        </mxCell>
        <mxCell id="s6z-DPjrk-eeVtkhGJ_P-204" style="edgeStyle=orthogonalEdgeStyle;rounded=0;orthogonalLoop=1;jettySize=auto;html=1;endArrow=none;endFill=0;" edge="1" parent="1" source="s6z-DPjrk-eeVtkhGJ_P-205">
          <mxGeometry relative="1" as="geometry">
            <mxPoint x="680" y="680" as="targetPoint" />
          </mxGeometry>
        </mxCell>
        <mxCell id="s6z-DPjrk-eeVtkhGJ_P-205" value="ticketGroupNo" style="ellipse;whiteSpace=wrap;html=1;" vertex="1" parent="1">
          <mxGeometry x="700" y="709.96" width="120" height="39.96" as="geometry" />
        </mxCell>
        <mxCell id="s6z-DPjrk-eeVtkhGJ_P-206" style="edgeStyle=orthogonalEdgeStyle;rounded=0;orthogonalLoop=1;jettySize=auto;html=1;endArrow=none;endFill=0;" edge="1" parent="1" source="s6z-DPjrk-eeVtkhGJ_P-207">
          <mxGeometry relative="1" as="geometry">
            <mxPoint x="680" y="730" as="targetPoint" />
          </mxGeometry>
        </mxCell>
        <mxCell id="s6z-DPjrk-eeVtkhGJ_P-207" value="ticketStartTime" style="ellipse;whiteSpace=wrap;html=1;" vertex="1" parent="1">
          <mxGeometry x="700" y="759.96" width="120" height="39.96" as="geometry" />
        </mxCell>
        <mxCell id="s6z-DPjrk-eeVtkhGJ_P-208" style="edgeStyle=orthogonalEdgeStyle;rounded=0;orthogonalLoop=1;jettySize=auto;html=1;endArrow=none;endFill=0;" edge="1" parent="1" source="s6z-DPjrk-eeVtkhGJ_P-209">
          <mxGeometry relative="1" as="geometry">
            <mxPoint x="680" y="780" as="targetPoint" />
          </mxGeometry>
        </mxCell>
        <mxCell id="s6z-DPjrk-eeVtkhGJ_P-209" value="ticketStartTime" style="ellipse;whiteSpace=wrap;html=1;" vertex="1" parent="1">
          <mxGeometry x="700" y="809.96" width="120" height="39.96" as="geometry" />
        </mxCell>
        <mxCell id="s6z-DPjrk-eeVtkhGJ_P-210" style="edgeStyle=orthogonalEdgeStyle;rounded=0;orthogonalLoop=1;jettySize=auto;html=1;endArrow=none;endFill=0;" edge="1" parent="1" source="s6z-DPjrk-eeVtkhGJ_P-211">
          <mxGeometry relative="1" as="geometry">
            <mxPoint x="680" y="830" as="targetPoint" />
          </mxGeometry>
        </mxCell>
        <mxCell id="s6z-DPjrk-eeVtkhGJ_P-211" value="ticketEndTime" style="ellipse;whiteSpace=wrap;html=1;" vertex="1" parent="1">
          <mxGeometry x="700" y="859.96" width="120" height="39.96" as="geometry" />
        </mxCell>
        <mxCell id="s6z-DPjrk-eeVtkhGJ_P-212" style="edgeStyle=orthogonalEdgeStyle;rounded=0;orthogonalLoop=1;jettySize=auto;html=1;endArrow=none;endFill=0;" edge="1" parent="1" source="s6z-DPjrk-eeVtkhGJ_P-213">
          <mxGeometry relative="1" as="geometry">
            <mxPoint x="680" y="880" as="targetPoint" />
          </mxGeometry>
        </mxCell>
        <mxCell id="s6z-DPjrk-eeVtkhGJ_P-213" value="ticketDuration" style="ellipse;whiteSpace=wrap;html=1;" vertex="1" parent="1">
          <mxGeometry x="700" y="909.96" width="120" height="39.96" as="geometry" />
        </mxCell>
        <mxCell id="s6z-DPjrk-eeVtkhGJ_P-310" value="Primary Entity Type" style="text;whiteSpace=wrap;" vertex="1" parent="1">
          <mxGeometry x="10" y="10" width="140" height="40" as="geometry" />
        </mxCell>
        <mxCell id="s6z-DPjrk-eeVtkhGJ_P-311" value="More Entity Types" style="text;whiteSpace=wrap;" vertex="1" parent="1">
          <mxGeometry x="570" y="10" width="130" height="40" as="geometry" />
        </mxCell>
        <mxCell id="s6z-DPjrk-eeVtkhGJ_P-315" style="edgeStyle=orthogonalEdgeStyle;rounded=0;orthogonalLoop=1;jettySize=auto;html=1;entryX=0;entryY=0.5;entryDx=0;entryDy=0;" edge="1" parent="1" source="s6z-DPjrk-eeVtkhGJ_P-314" target="s6z-DPjrk-eeVtkhGJ_P-313">
          <mxGeometry relative="1" as="geometry" />
        </mxCell>
        <mxCell id="s6z-DPjrk-eeVtkhGJ_P-314" value="Ticket" style="rounded=1;whiteSpace=wrap;html=1;fillColor=#008a00;fontColor=#ffffff;strokeColor=#005700;" vertex="1" parent="1">
          <mxGeometry x="500" y="950" width="90" height="60" as="geometry" />
        </mxCell>
        <mxCell id="s6z-DPjrk-eeVtkhGJ_P-319" style="edgeStyle=orthogonalEdgeStyle;rounded=0;orthogonalLoop=1;jettySize=auto;html=1;entryX=0;entryY=0.5;entryDx=0;entryDy=0;" edge="1" parent="1" source="s6z-DPjrk-eeVtkhGJ_P-317" target="s6z-DPjrk-eeVtkhGJ_P-318">
          <mxGeometry relative="1" as="geometry" />
        </mxCell>
        <mxCell id="s6z-DPjrk-eeVtkhGJ_P-317" value="Catering" style="rounded=1;whiteSpace=wrap;html=1;fillColor=#ffe6cc;strokeColor=#d79b00;" vertex="1" parent="1">
          <mxGeometry x="530" y="330" width="80" height="60" as="geometry" />
        </mxCell>
        <mxCell id="s6z-DPjrk-eeVtkhGJ_P-322" style="edgeStyle=orthogonalEdgeStyle;rounded=0;orthogonalLoop=1;jettySize=auto;html=1;entryX=0;entryY=0.5;entryDx=0;entryDy=0;" edge="1" parent="1" source="s6z-DPjrk-eeVtkhGJ_P-321" target="s6z-DPjrk-eeVtkhGJ_P-320">
          <mxGeometry relative="1" as="geometry" />
        </mxCell>
        <mxCell id="s6z-DPjrk-eeVtkhGJ_P-321" value="TouristInfo" style="rounded=1;whiteSpace=wrap;html=1;fillColor=#e1d5e7;strokeColor=#9673a6;" vertex="1" parent="1">
          <mxGeometry x="530" y="160" width="90" height="49.94" as="geometry" />
        </mxCell>
        <mxCell id="s6z-DPjrk-eeVtkhGJ_P-325" style="edgeStyle=orthogonalEdgeStyle;rounded=0;orthogonalLoop=1;jettySize=auto;html=1;" edge="1" parent="1" source="s6z-DPjrk-eeVtkhGJ_P-324">
          <mxGeometry relative="1" as="geometry">
            <mxPoint x="690" y="530" as="targetPoint" />
          </mxGeometry>
        </mxCell>
        <mxCell id="s6z-DPjrk-eeVtkhGJ_P-324" value="UsefulPersonalItems" style="rounded=1;whiteSpace=wrap;html=1;fillColor=#f8cecc;strokeColor=#b85450;" vertex="1" parent="1">
          <mxGeometry x="460" y="480" width="130" height="60" as="geometry" />
        </mxCell>
        <mxCell id="s6z-DPjrk-eeVtkhGJ_P-329" style="edgeStyle=orthogonalEdgeStyle;rounded=0;orthogonalLoop=1;jettySize=auto;html=1;entryX=1;entryY=0.5;entryDx=0;entryDy=0;" edge="1" parent="1" source="s6z-DPjrk-eeVtkhGJ_P-328" target="s6z-DPjrk-eeVtkhGJ_P-326">
          <mxGeometry relative="1" as="geometry" />
        </mxCell>
        <mxCell id="s6z-DPjrk-eeVtkhGJ_P-328" value="Gathering" style="rounded=1;whiteSpace=wrap;html=1;fillColor=#d80073;fontColor=#ffffff;strokeColor=#A50040;" vertex="1" parent="1">
          <mxGeometry x="1120" y="280.03999999999996" width="120" height="60" as="geometry" />
        </mxCell>
        <mxCell id="s6z-DPjrk-eeVtkhGJ_P-330" style="edgeStyle=orthogonalEdgeStyle;rounded=0;orthogonalLoop=1;jettySize=auto;html=1;endArrow=none;endFill=0;" edge="1" parent="1" source="s6z-DPjrk-eeVtkhGJ_P-331">
          <mxGeometry relative="1" as="geometry">
            <mxPoint x="840" y="180" as="targetPoint" />
          </mxGeometry>
        </mxCell>
        <mxCell id="s6z-DPjrk-eeVtkhGJ_P-331" value="touristicFeesAim" style="ellipse;whiteSpace=wrap;html=1;" vertex="1" parent="1">
          <mxGeometry x="880" y="209.96000000000004" width="120" height="39.96" as="geometry" />
        </mxCell>
        <mxCell id="s6z-DPjrk-eeVtkhGJ_P-332" style="edgeStyle=orthogonalEdgeStyle;rounded=0;orthogonalLoop=1;jettySize=auto;html=1;endArrow=none;endFill=0;" edge="1" parent="1" source="s6z-DPjrk-eeVtkhGJ_P-333">
          <mxGeometry relative="1" as="geometry">
            <mxPoint x="840" y="229.96" as="targetPoint" />
          </mxGeometry>
        </mxCell>
        <mxCell id="s6z-DPjrk-eeVtkhGJ_P-333" value="touristicFeesSize" style="ellipse;whiteSpace=wrap;html=1;" vertex="1" parent="1">
          <mxGeometry x="880" y="259.92" width="120" height="39.96" as="geometry" />
        </mxCell>
        <mxCell id="s6z-DPjrk-eeVtkhGJ_P-336" style="edgeStyle=orthogonalEdgeStyle;rounded=0;orthogonalLoop=1;jettySize=auto;html=1;entryX=1;entryY=0.5;entryDx=0;entryDy=0;" edge="1" parent="1" source="s6z-DPjrk-eeVtkhGJ_P-334" target="s6z-DPjrk-eeVtkhGJ_P-335">
          <mxGeometry relative="1" as="geometry" />
        </mxCell>
        <mxCell id="s6z-DPjrk-eeVtkhGJ_P-334" value="FessInfo" style="rounded=1;whiteSpace=wrap;html=1;fillColor=#60a917;fontColor=#ffffff;strokeColor=#2D7600;" vertex="1" parent="1">
          <mxGeometry x="1090" y="80" width="120" height="60" as="geometry" />
        </mxCell>
        <mxCell id="s6z-DPjrk-eeVtkhGJ_P-337" style="edgeStyle=orthogonalEdgeStyle;rounded=0;orthogonalLoop=1;jettySize=auto;html=1;endArrow=none;endFill=0;" edge="1" parent="1" source="s6z-DPjrk-eeVtkhGJ_P-338">
          <mxGeometry relative="1" as="geometry">
            <mxPoint x="840" y="530" as="targetPoint" />
          </mxGeometry>
        </mxCell>
        <mxCell id="s6z-DPjrk-eeVtkhGJ_P-338" value="endDatePayFees" style="ellipse;whiteSpace=wrap;html=1;" vertex="1" parent="1">
          <mxGeometry x="880" y="559.96" width="120" height="39.96" as="geometry" />
        </mxCell>
        <mxCell id="s6z-DPjrk-eeVtkhGJ_P-341" style="edgeStyle=orthogonalEdgeStyle;rounded=0;orthogonalLoop=1;jettySize=auto;html=1;entryX=1;entryY=0.5;entryDx=0;entryDy=0;" edge="1" parent="1" source="s6z-DPjrk-eeVtkhGJ_P-339" target="s6z-DPjrk-eeVtkhGJ_P-340">
          <mxGeometry relative="1" as="geometry" />
        </mxCell>
        <mxCell id="s6z-DPjrk-eeVtkhGJ_P-339" value="PayFeesActive" style="rounded=1;whiteSpace=wrap;html=1;fillColor=#a20025;fontColor=#ffffff;strokeColor=#6F0000;" vertex="1" parent="1">
          <mxGeometry x="1080" y="499.91999999999996" width="120" height="60" as="geometry" />
        </mxCell>
        <mxCell id="s6z-DPjrk-eeVtkhGJ_P-344" style="edgeStyle=orthogonalEdgeStyle;rounded=0;orthogonalLoop=1;jettySize=auto;html=1;entryX=1;entryY=0.5;entryDx=0;entryDy=0;" edge="1" parent="1" source="s6z-DPjrk-eeVtkhGJ_P-342" target="s6z-DPjrk-eeVtkhGJ_P-343">
          <mxGeometry relative="1" as="geometry" />
        </mxCell>
        <mxCell id="s6z-DPjrk-eeVtkhGJ_P-342" value="Guide" style="rounded=1;whiteSpace=wrap;html=1;fillColor=#a0522d;fontColor=#ffffff;strokeColor=#6D1F00;" vertex="1" parent="1">
          <mxGeometry x="1090" y="739.92" width="120" height="60" as="geometry" />
        </mxCell>
        <mxCell id="s6z-DPjrk-eeVtkhGJ_P-349" style="edgeStyle=orthogonalEdgeStyle;rounded=0;orthogonalLoop=1;jettySize=auto;html=1;endArrow=none;endFill=0;" edge="1" parent="1" source="s6z-DPjrk-eeVtkhGJ_P-350">
          <mxGeometry relative="1" as="geometry">
            <mxPoint x="280" y="280.04" as="targetPoint" />
          </mxGeometry>
        </mxCell>
        <mxCell id="s6z-DPjrk-eeVtkhGJ_P-350" value="gatheringPlaceName" style="ellipse;whiteSpace=wrap;html=1;" vertex="1" parent="1">
          <mxGeometry x="320" y="310" width="120" height="39.96" as="geometry" />
        </mxCell>
        <mxCell id="s6z-DPjrk-eeVtkhGJ_P-351" style="edgeStyle=orthogonalEdgeStyle;rounded=0;orthogonalLoop=1;jettySize=auto;html=1;endArrow=none;endFill=0;" edge="1" parent="1" source="s6z-DPjrk-eeVtkhGJ_P-352">
          <mxGeometry relative="1" as="geometry">
            <mxPoint x="280" y="330.04" as="targetPoint" />
          </mxGeometry>
        </mxCell>
        <mxCell id="s6z-DPjrk-eeVtkhGJ_P-352" value="inGatheringPlace" style="ellipse;whiteSpace=wrap;html=1;" vertex="1" parent="1">
          <mxGeometry x="320" y="360" width="120" height="39.96" as="geometry" />
        </mxCell>
        <mxCell id="s6z-DPjrk-eeVtkhGJ_P-353" style="edgeStyle=orthogonalEdgeStyle;rounded=0;orthogonalLoop=1;jettySize=auto;html=1;endArrow=none;endFill=0;" edge="1" parent="1" source="s6z-DPjrk-eeVtkhGJ_P-354">
          <mxGeometry relative="1" as="geometry">
            <mxPoint x="280" y="380.04" as="targetPoint" />
          </mxGeometry>
        </mxCell>
        <mxCell id="s6z-DPjrk-eeVtkhGJ_P-354" value="outGatheringPlace" style="ellipse;whiteSpace=wrap;html=1;" vertex="1" parent="1">
          <mxGeometry x="320" y="410" width="120" height="39.96" as="geometry" />
        </mxCell>
        <mxCell id="s6z-DPjrk-eeVtkhGJ_P-355" style="edgeStyle=orthogonalEdgeStyle;rounded=0;orthogonalLoop=1;jettySize=auto;html=1;endArrow=none;endFill=0;" edge="1" parent="1" source="s6z-DPjrk-eeVtkhGJ_P-356">
          <mxGeometry relative="1" as="geometry">
            <mxPoint x="280" y="430.03999999999996" as="targetPoint" />
          </mxGeometry>
        </mxCell>
        <mxCell id="s6z-DPjrk-eeVtkhGJ_P-356" value="outGatheringPlace" style="ellipse;whiteSpace=wrap;html=1;" vertex="1" parent="1">
          <mxGeometry x="320" y="459.99999999999994" width="120" height="39.96" as="geometry" />
        </mxCell>
        <mxCell id="s6z-DPjrk-eeVtkhGJ_P-357" style="edgeStyle=orthogonalEdgeStyle;rounded=0;orthogonalLoop=1;jettySize=auto;html=1;endArrow=none;endFill=0;" edge="1" parent="1" source="s6z-DPjrk-eeVtkhGJ_P-358">
          <mxGeometry relative="1" as="geometry">
            <mxPoint x="280" y="130" as="targetPoint" />
          </mxGeometry>
        </mxCell>
        <mxCell id="s6z-DPjrk-eeVtkhGJ_P-358" value="touristicFeesLabel" style="ellipse;whiteSpace=wrap;html=1;" vertex="1" parent="1">
          <mxGeometry x="320" y="159.96000000000004" width="120" height="39.96" as="geometry" />
        </mxCell>
        <mxCell id="s6z-DPjrk-eeVtkhGJ_P-359" style="edgeStyle=orthogonalEdgeStyle;rounded=0;orthogonalLoop=1;jettySize=auto;html=1;endArrow=none;endFill=0;" edge="1" parent="1" source="s6z-DPjrk-eeVtkhGJ_P-360">
          <mxGeometry relative="1" as="geometry">
            <mxPoint x="280" y="479.99999999999994" as="targetPoint" />
          </mxGeometry>
        </mxCell>
        <mxCell id="s6z-DPjrk-eeVtkhGJ_P-360" value="startDatePayFees" style="ellipse;whiteSpace=wrap;html=1;" vertex="1" parent="1">
          <mxGeometry x="320" y="509.96" width="120" height="39.96" as="geometry" />
        </mxCell>
        <mxCell id="s6z-DPjrk-eeVtkhGJ_P-361" style="edgeStyle=orthogonalEdgeStyle;rounded=0;orthogonalLoop=1;jettySize=auto;html=1;endArrow=none;endFill=0;" edge="1" parent="1" source="s6z-DPjrk-eeVtkhGJ_P-362">
          <mxGeometry relative="1" as="geometry">
            <mxPoint x="280" y="580" as="targetPoint" />
          </mxGeometry>
        </mxCell>
        <mxCell id="s6z-DPjrk-eeVtkhGJ_P-362" value="&lt;div&gt;guideFirstName&lt;/div&gt;" style="ellipse;whiteSpace=wrap;html=1;" vertex="1" parent="1">
          <mxGeometry x="320" y="609.96" width="120" height="39.96" as="geometry" />
        </mxCell>
        <mxCell id="s6z-DPjrk-eeVtkhGJ_P-363" style="edgeStyle=orthogonalEdgeStyle;rounded=0;orthogonalLoop=1;jettySize=auto;html=1;endArrow=none;endFill=0;" edge="1" parent="1" source="s6z-DPjrk-eeVtkhGJ_P-364">
          <mxGeometry relative="1" as="geometry">
            <mxPoint x="280" y="630" as="targetPoint" />
          </mxGeometry>
        </mxCell>
        <mxCell id="s6z-DPjrk-eeVtkhGJ_P-364" value="&lt;div&gt;guideLastName&lt;/div&gt;" style="ellipse;whiteSpace=wrap;html=1;" vertex="1" parent="1">
          <mxGeometry x="320" y="659.96" width="120" height="39.96" as="geometry" />
        </mxCell>
        <mxCell id="s6z-DPjrk-eeVtkhGJ_P-365" style="edgeStyle=orthogonalEdgeStyle;rounded=0;orthogonalLoop=1;jettySize=auto;html=1;endArrow=none;endFill=0;" edge="1" parent="1" source="s6z-DPjrk-eeVtkhGJ_P-366">
          <mxGeometry relative="1" as="geometry">
            <mxPoint x="280" y="680" as="targetPoint" />
          </mxGeometry>
        </mxCell>
        <mxCell id="s6z-DPjrk-eeVtkhGJ_P-366" value="&lt;div&gt;guidePhone&lt;/div&gt;" style="ellipse;whiteSpace=wrap;html=1;" vertex="1" parent="1">
          <mxGeometry x="320" y="709.96" width="120" height="39.96" as="geometry" />
        </mxCell>
        <mxCell id="s6z-DPjrk-eeVtkhGJ_P-367" style="edgeStyle=orthogonalEdgeStyle;rounded=0;orthogonalLoop=1;jettySize=auto;html=1;endArrow=none;endFill=0;" edge="1" parent="1" source="s6z-DPjrk-eeVtkhGJ_P-368">
          <mxGeometry relative="1" as="geometry">
            <mxPoint x="280" y="730" as="targetPoint" />
          </mxGeometry>
        </mxCell>
        <mxCell id="s6z-DPjrk-eeVtkhGJ_P-368" value="groupEquipment" style="ellipse;whiteSpace=wrap;html=1;" vertex="1" parent="1">
          <mxGeometry x="320" y="759.96" width="120" height="39.96" as="geometry" />
        </mxCell>
        <mxCell id="s6z-DPjrk-eeVtkhGJ_P-369" style="edgeStyle=orthogonalEdgeStyle;rounded=0;orthogonalLoop=1;jettySize=auto;html=1;endArrow=none;endFill=0;" edge="1" parent="1" source="s6z-DPjrk-eeVtkhGJ_P-370">
          <mxGeometry relative="1" as="geometry">
            <mxPoint x="280" y="180" as="targetPoint" />
          </mxGeometry>
        </mxCell>
        <mxCell id="s6z-DPjrk-eeVtkhGJ_P-370" value="touristicFeesAim" style="ellipse;whiteSpace=wrap;html=1;" vertex="1" parent="1">
          <mxGeometry x="320" y="209.96000000000006" width="120" height="39.96" as="geometry" />
        </mxCell>
        <mxCell id="s6z-DPjrk-eeVtkhGJ_P-371" style="edgeStyle=orthogonalEdgeStyle;rounded=0;orthogonalLoop=1;jettySize=auto;html=1;endArrow=none;endFill=0;" edge="1" parent="1" source="s6z-DPjrk-eeVtkhGJ_P-372">
          <mxGeometry relative="1" as="geometry">
            <mxPoint x="280" y="229.96" as="targetPoint" />
          </mxGeometry>
        </mxCell>
        <mxCell id="s6z-DPjrk-eeVtkhGJ_P-372" value="touristicFeesSize" style="ellipse;whiteSpace=wrap;html=1;" vertex="1" parent="1">
          <mxGeometry x="320" y="259.92" width="120" height="39.96" as="geometry" />
        </mxCell>
        <mxCell id="s6z-DPjrk-eeVtkhGJ_P-373" style="edgeStyle=orthogonalEdgeStyle;rounded=0;orthogonalLoop=1;jettySize=auto;html=1;endArrow=none;endFill=0;" edge="1" parent="1" source="s6z-DPjrk-eeVtkhGJ_P-374">
          <mxGeometry relative="1" as="geometry">
            <mxPoint x="280" y="530" as="targetPoint" />
          </mxGeometry>
        </mxCell>
        <mxCell id="s6z-DPjrk-eeVtkhGJ_P-374" value="endDatePayFees" style="ellipse;whiteSpace=wrap;html=1;" vertex="1" parent="1">
          <mxGeometry x="320" y="559.96" width="120" height="39.96" as="geometry" />
        </mxCell>
        <mxCell id="s6z-DPjrk-eeVtkhGJ_P-466" value="Distribute Attributes" style="text;whiteSpace=wrap;" vertex="1" parent="1">
          <mxGeometry x="1390" y="10" width="130" height="40" as="geometry" />
        </mxCell>
        <mxCell id="s6z-DPjrk-eeVtkhGJ_P-489" value="TouristInfo" style="rounded=1;whiteSpace=wrap;html=1;fillColor=#e1d5e7;strokeColor=#9673a6;" vertex="1" parent="1">
          <mxGeometry x="1360" y="80" width="90" height="49.94" as="geometry" />
        </mxCell>
        <mxCell id="s6z-DPjrk-eeVtkhGJ_P-490" value="" style="rounded=1;whiteSpace=wrap;html=1;fillColor=#e1d5e7;strokeColor=#9673a6;" vertex="1" parent="1">
          <mxGeometry x="1380" y="159.96" width="140" height="310.04" as="geometry" />
        </mxCell>
        <mxCell id="s6z-DPjrk-eeVtkhGJ_P-498" style="edgeStyle=orthogonalEdgeStyle;rounded=0;orthogonalLoop=1;jettySize=auto;html=1;" edge="1" parent="1" source="s6z-DPjrk-eeVtkhGJ_P-491">
          <mxGeometry relative="1" as="geometry">
            <mxPoint x="1360" y="120" as="targetPoint" />
          </mxGeometry>
        </mxCell>
        <mxCell id="s6z-DPjrk-eeVtkhGJ_P-491" value="touristFirstName" style="ellipse;whiteSpace=wrap;html=1;" vertex="1" parent="1">
          <mxGeometry x="1390" y="169.95999999999998" width="120" height="39.96" as="geometry" />
        </mxCell>
        <mxCell id="s6z-DPjrk-eeVtkhGJ_P-499" style="edgeStyle=orthogonalEdgeStyle;rounded=0;orthogonalLoop=1;jettySize=auto;html=1;endArrow=none;endFill=0;" edge="1" parent="1" source="s6z-DPjrk-eeVtkhGJ_P-492">
          <mxGeometry relative="1" as="geometry">
            <mxPoint x="1360" y="190" as="targetPoint" />
          </mxGeometry>
        </mxCell>
        <mxCell id="s6z-DPjrk-eeVtkhGJ_P-492" value="touristLastName" style="ellipse;whiteSpace=wrap;html=1;" vertex="1" parent="1">
          <mxGeometry x="1390" y="219.92000000000002" width="120" height="39.96" as="geometry" />
        </mxCell>
        <mxCell id="s6z-DPjrk-eeVtkhGJ_P-500" style="edgeStyle=orthogonalEdgeStyle;rounded=0;orthogonalLoop=1;jettySize=auto;html=1;endArrow=none;endFill=0;" edge="1" parent="1" source="s6z-DPjrk-eeVtkhGJ_P-493">
          <mxGeometry relative="1" as="geometry">
            <mxPoint x="1360" y="240" as="targetPoint" />
          </mxGeometry>
        </mxCell>
        <mxCell id="s6z-DPjrk-eeVtkhGJ_P-493" value="touristPhoneNumber" style="ellipse;whiteSpace=wrap;html=1;" vertex="1" parent="1">
          <mxGeometry x="1390" y="269.92" width="120" height="39.96" as="geometry" />
        </mxCell>
        <mxCell id="s6z-DPjrk-eeVtkhGJ_P-501" style="edgeStyle=orthogonalEdgeStyle;rounded=0;orthogonalLoop=1;jettySize=auto;html=1;endArrow=none;endFill=0;" edge="1" parent="1" source="s6z-DPjrk-eeVtkhGJ_P-494">
          <mxGeometry relative="1" as="geometry">
            <mxPoint x="1360" y="290" as="targetPoint" />
          </mxGeometry>
        </mxCell>
        <mxCell id="s6z-DPjrk-eeVtkhGJ_P-494" value="touristClass" style="ellipse;whiteSpace=wrap;html=1;" vertex="1" parent="1">
          <mxGeometry x="1390" y="319.92" width="120" height="39.96" as="geometry" />
        </mxCell>
        <mxCell id="s6z-DPjrk-eeVtkhGJ_P-502" style="edgeStyle=orthogonalEdgeStyle;rounded=0;orthogonalLoop=1;jettySize=auto;html=1;endArrow=none;endFill=0;" edge="1" parent="1" source="s6z-DPjrk-eeVtkhGJ_P-495">
          <mxGeometry relative="1" as="geometry">
            <mxPoint x="1360" y="340" as="targetPoint" />
          </mxGeometry>
        </mxCell>
        <mxCell id="s6z-DPjrk-eeVtkhGJ_P-495" value="tourist(No/NickName)" style="ellipse;whiteSpace=wrap;html=1;" vertex="1" parent="1">
          <mxGeometry x="1390" y="369.92" width="120" height="39.96" as="geometry" />
        </mxCell>
        <mxCell id="s6z-DPjrk-eeVtkhGJ_P-503" style="edgeStyle=orthogonalEdgeStyle;rounded=0;orthogonalLoop=1;jettySize=auto;html=1;endArrow=none;endFill=0;" edge="1" parent="1" source="s6z-DPjrk-eeVtkhGJ_P-496">
          <mxGeometry relative="1" as="geometry">
            <mxPoint x="1360" y="390" as="targetPoint" />
          </mxGeometry>
        </mxCell>
        <mxCell id="s6z-DPjrk-eeVtkhGJ_P-496" value="touristPaymentStatus" style="ellipse;whiteSpace=wrap;html=1;" vertex="1" parent="1">
          <mxGeometry x="1390" y="419.92" width="120" height="39.96" as="geometry" />
        </mxCell>
        <mxCell id="s6z-DPjrk-eeVtkhGJ_P-504" value="Catering" style="rounded=1;whiteSpace=wrap;html=1;fillColor=#ffe6cc;strokeColor=#d79b00;" vertex="1" parent="1">
          <mxGeometry x="1560" y="80" width="80" height="60" as="geometry" />
        </mxCell>
        <mxCell id="s6z-DPjrk-eeVtkhGJ_P-507" value="" style="rounded=1;whiteSpace=wrap;html=1;fillColor=#ffe6cc;strokeColor=#d79b00;" vertex="1" parent="1">
          <mxGeometry x="1580" y="160" width="140" height="110" as="geometry" />
        </mxCell>
        <mxCell id="s6z-DPjrk-eeVtkhGJ_P-510" style="edgeStyle=orthogonalEdgeStyle;rounded=0;orthogonalLoop=1;jettySize=auto;html=1;entryX=0;entryY=0.833;entryDx=0;entryDy=0;entryPerimeter=0;" edge="1" parent="1" source="s6z-DPjrk-eeVtkhGJ_P-508" target="s6z-DPjrk-eeVtkhGJ_P-504">
          <mxGeometry relative="1" as="geometry">
            <mxPoint x="1560" y="160.04" as="targetPoint" />
            <Array as="points">
              <mxPoint x="1560" y="190" />
            </Array>
          </mxGeometry>
        </mxCell>
        <mxCell id="s6z-DPjrk-eeVtkhGJ_P-508" value="mealType" style="ellipse;whiteSpace=wrap;html=1;" vertex="1" parent="1">
          <mxGeometry x="1590" y="169.92000000000002" width="120" height="39.96" as="geometry" />
        </mxCell>
        <mxCell id="s6z-DPjrk-eeVtkhGJ_P-511" style="edgeStyle=orthogonalEdgeStyle;rounded=0;orthogonalLoop=1;jettySize=auto;html=1;endArrow=none;endFill=0;" edge="1" parent="1" source="s6z-DPjrk-eeVtkhGJ_P-509">
          <mxGeometry relative="1" as="geometry">
            <mxPoint x="1560" y="190" as="targetPoint" />
          </mxGeometry>
        </mxCell>
        <mxCell id="s6z-DPjrk-eeVtkhGJ_P-509" value="drinksType" style="ellipse;whiteSpace=wrap;html=1;" vertex="1" parent="1">
          <mxGeometry x="1590" y="219.92000000000002" width="120" height="39.96" as="geometry" />
        </mxCell>
        <mxCell id="s6z-DPjrk-eeVtkhGJ_P-512" value="" style="rounded=1;whiteSpace=wrap;html=1;fillColor=#f8cecc;strokeColor=#b85450;" vertex="1" parent="1">
          <mxGeometry x="1780" y="160" width="140" height="60.06" as="geometry" />
        </mxCell>
        <mxCell id="s6z-DPjrk-eeVtkhGJ_P-516" style="edgeStyle=orthogonalEdgeStyle;rounded=0;orthogonalLoop=1;jettySize=auto;html=1;entryX=-0.004;entryY=0.853;entryDx=0;entryDy=0;entryPerimeter=0;" edge="1" parent="1" source="s6z-DPjrk-eeVtkhGJ_P-513" target="s6z-DPjrk-eeVtkhGJ_P-515">
          <mxGeometry relative="1" as="geometry">
            <mxPoint x="1760" y="150" as="targetPoint" />
            <Array as="points">
              <mxPoint x="1759" y="190" />
            </Array>
          </mxGeometry>
        </mxCell>
        <mxCell id="s6z-DPjrk-eeVtkhGJ_P-513" value="personalEquipment" style="ellipse;whiteSpace=wrap;html=1;" vertex="1" parent="1">
          <mxGeometry x="1790" y="170.01999999999998" width="120" height="39.96" as="geometry" />
        </mxCell>
        <mxCell id="s6z-DPjrk-eeVtkhGJ_P-515" value="UsefulPersonalItems" style="rounded=1;whiteSpace=wrap;html=1;fillColor=#f8cecc;strokeColor=#b85450;" vertex="1" parent="1">
          <mxGeometry x="1760" y="79.99999999999994" width="130" height="60" as="geometry" />
        </mxCell>
        <mxCell id="s6z-DPjrk-eeVtkhGJ_P-517" value="" style="rounded=1;whiteSpace=wrap;html=1;fillColor=#008a00;fontColor=#ffffff;strokeColor=#005700;" vertex="1" parent="1">
          <mxGeometry x="1980" y="160" width="140" height="410.1" as="geometry" />
        </mxCell>
        <mxCell id="s6z-DPjrk-eeVtkhGJ_P-528" style="edgeStyle=orthogonalEdgeStyle;rounded=0;orthogonalLoop=1;jettySize=auto;html=1;entryX=0;entryY=1;entryDx=0;entryDy=0;" edge="1" parent="1" source="s6z-DPjrk-eeVtkhGJ_P-518" target="s6z-DPjrk-eeVtkhGJ_P-527">
          <mxGeometry relative="1" as="geometry">
            <Array as="points">
              <mxPoint x="1960" y="190" />
            </Array>
          </mxGeometry>
        </mxCell>
        <mxCell id="s6z-DPjrk-eeVtkhGJ_P-518" value="ticketType" style="ellipse;whiteSpace=wrap;html=1;" vertex="1" parent="1">
          <mxGeometry x="1990" y="170.06000000000012" width="120" height="39.96" as="geometry" />
        </mxCell>
        <mxCell id="s6z-DPjrk-eeVtkhGJ_P-529" style="edgeStyle=orthogonalEdgeStyle;rounded=0;orthogonalLoop=1;jettySize=auto;html=1;endArrow=none;endFill=0;" edge="1" parent="1" source="s6z-DPjrk-eeVtkhGJ_P-519">
          <mxGeometry relative="1" as="geometry">
            <mxPoint x="1960" y="190" as="targetPoint" />
          </mxGeometry>
        </mxCell>
        <mxCell id="s6z-DPjrk-eeVtkhGJ_P-519" value="ticketNo" style="ellipse;whiteSpace=wrap;html=1;" vertex="1" parent="1">
          <mxGeometry x="1990" y="220.06000000000012" width="120" height="39.96" as="geometry" />
        </mxCell>
        <mxCell id="s6z-DPjrk-eeVtkhGJ_P-530" style="edgeStyle=orthogonalEdgeStyle;rounded=0;orthogonalLoop=1;jettySize=auto;html=1;endArrow=none;endFill=0;" edge="1" parent="1" source="s6z-DPjrk-eeVtkhGJ_P-520">
          <mxGeometry relative="1" as="geometry">
            <mxPoint x="1960" y="240" as="targetPoint" />
          </mxGeometry>
        </mxCell>
        <mxCell id="s6z-DPjrk-eeVtkhGJ_P-520" value="ticketDateToReg" style="ellipse;whiteSpace=wrap;html=1;" vertex="1" parent="1">
          <mxGeometry x="1990" y="270.0600000000001" width="120" height="39.96" as="geometry" />
        </mxCell>
        <mxCell id="s6z-DPjrk-eeVtkhGJ_P-531" style="edgeStyle=orthogonalEdgeStyle;rounded=0;orthogonalLoop=1;jettySize=auto;html=1;endArrow=none;endFill=0;" edge="1" parent="1" source="s6z-DPjrk-eeVtkhGJ_P-521">
          <mxGeometry relative="1" as="geometry">
            <mxPoint x="1960" y="290" as="targetPoint" />
          </mxGeometry>
        </mxCell>
        <mxCell id="s6z-DPjrk-eeVtkhGJ_P-521" value="ticketGroupNo" style="ellipse;whiteSpace=wrap;html=1;" vertex="1" parent="1">
          <mxGeometry x="1990" y="320.0600000000001" width="120" height="39.96" as="geometry" />
        </mxCell>
        <mxCell id="s6z-DPjrk-eeVtkhGJ_P-532" style="edgeStyle=orthogonalEdgeStyle;rounded=0;orthogonalLoop=1;jettySize=auto;html=1;endArrow=none;endFill=0;" edge="1" parent="1" source="s6z-DPjrk-eeVtkhGJ_P-522">
          <mxGeometry relative="1" as="geometry">
            <mxPoint x="1960" y="340" as="targetPoint" />
          </mxGeometry>
        </mxCell>
        <mxCell id="s6z-DPjrk-eeVtkhGJ_P-522" value="ticketStartTime" style="ellipse;whiteSpace=wrap;html=1;" vertex="1" parent="1">
          <mxGeometry x="1990" y="370.0600000000001" width="120" height="39.96" as="geometry" />
        </mxCell>
        <mxCell id="s6z-DPjrk-eeVtkhGJ_P-533" style="edgeStyle=orthogonalEdgeStyle;rounded=0;orthogonalLoop=1;jettySize=auto;html=1;endArrow=none;endFill=0;" edge="1" parent="1" source="s6z-DPjrk-eeVtkhGJ_P-523">
          <mxGeometry relative="1" as="geometry">
            <mxPoint x="1960" y="390" as="targetPoint" />
          </mxGeometry>
        </mxCell>
        <mxCell id="s6z-DPjrk-eeVtkhGJ_P-523" value="ticketStartTime" style="ellipse;whiteSpace=wrap;html=1;" vertex="1" parent="1">
          <mxGeometry x="1990" y="420.0600000000001" width="120" height="39.96" as="geometry" />
        </mxCell>
        <mxCell id="s6z-DPjrk-eeVtkhGJ_P-534" style="edgeStyle=orthogonalEdgeStyle;rounded=0;orthogonalLoop=1;jettySize=auto;html=1;endArrow=none;endFill=0;" edge="1" parent="1" source="s6z-DPjrk-eeVtkhGJ_P-524">
          <mxGeometry relative="1" as="geometry">
            <mxPoint x="1960" y="440" as="targetPoint" />
          </mxGeometry>
        </mxCell>
        <mxCell id="s6z-DPjrk-eeVtkhGJ_P-524" value="ticketEndTime" style="ellipse;whiteSpace=wrap;html=1;" vertex="1" parent="1">
          <mxGeometry x="1990" y="470.0600000000002" width="120" height="39.96" as="geometry" />
        </mxCell>
        <mxCell id="s6z-DPjrk-eeVtkhGJ_P-535" style="edgeStyle=orthogonalEdgeStyle;rounded=0;orthogonalLoop=1;jettySize=auto;html=1;endArrow=none;endFill=0;" edge="1" parent="1" source="s6z-DPjrk-eeVtkhGJ_P-525">
          <mxGeometry relative="1" as="geometry">
            <mxPoint x="1960" y="490" as="targetPoint" />
          </mxGeometry>
        </mxCell>
        <mxCell id="s6z-DPjrk-eeVtkhGJ_P-525" value="ticketDuration" style="ellipse;whiteSpace=wrap;html=1;" vertex="1" parent="1">
          <mxGeometry x="1990" y="520.0600000000002" width="120" height="39.96" as="geometry" />
        </mxCell>
        <mxCell id="s6z-DPjrk-eeVtkhGJ_P-527" value="Ticket" style="rounded=1;whiteSpace=wrap;html=1;fillColor=#008a00;fontColor=#ffffff;strokeColor=#005700;" vertex="1" parent="1">
          <mxGeometry x="1960" y="80" width="90" height="60" as="geometry" />
        </mxCell>
        <mxCell id="s6z-DPjrk-eeVtkhGJ_P-536" value="" style="rounded=1;whiteSpace=wrap;html=1;fillColor=#60a917;fontColor=#ffffff;strokeColor=#2D7600;" vertex="1" parent="1">
          <mxGeometry x="2220" y="160.06" width="130" height="209.94" as="geometry" />
        </mxCell>
        <mxCell id="s6z-DPjrk-eeVtkhGJ_P-544" style="edgeStyle=orthogonalEdgeStyle;rounded=0;orthogonalLoop=1;jettySize=auto;html=1;entryX=-0.006;entryY=0.888;entryDx=0;entryDy=0;entryPerimeter=0;" edge="1" parent="1" source="s6z-DPjrk-eeVtkhGJ_P-537" target="s6z-DPjrk-eeVtkhGJ_P-542">
          <mxGeometry relative="1" as="geometry">
            <mxPoint x="2200" y="170" as="targetPoint" />
            <Array as="points">
              <mxPoint x="2200" y="190" />
              <mxPoint x="2200" y="139" />
              <mxPoint x="2199" y="139" />
            </Array>
          </mxGeometry>
        </mxCell>
        <mxCell id="s6z-DPjrk-eeVtkhGJ_P-537" value="feesNo" style="ellipse;whiteSpace=wrap;html=1;" vertex="1" parent="1">
          <mxGeometry x="2225" y="170.02" width="120" height="39.96" as="geometry" />
        </mxCell>
        <mxCell id="s6z-DPjrk-eeVtkhGJ_P-538" value="touristicFeesLabel" style="ellipse;whiteSpace=wrap;html=1;" vertex="1" parent="1">
          <mxGeometry x="2225" y="219.98000000000002" width="120" height="39.96" as="geometry" />
        </mxCell>
        <mxCell id="s6z-DPjrk-eeVtkhGJ_P-539" value="touristicFeesAim" style="ellipse;whiteSpace=wrap;html=1;" vertex="1" parent="1">
          <mxGeometry x="2225" y="269.98" width="120" height="39.96" as="geometry" />
        </mxCell>
        <mxCell id="s6z-DPjrk-eeVtkhGJ_P-540" value="touristicFeesSize" style="ellipse;whiteSpace=wrap;html=1;" vertex="1" parent="1">
          <mxGeometry x="2225" y="319.94" width="120" height="39.96" as="geometry" />
        </mxCell>
        <mxCell id="s6z-DPjrk-eeVtkhGJ_P-542" value="FessInfo" style="rounded=1;whiteSpace=wrap;html=1;fillColor=#60a917;fontColor=#ffffff;strokeColor=#2D7600;" vertex="1" parent="1">
          <mxGeometry x="2200" y="80.00000000000001" width="120" height="60" as="geometry" />
        </mxCell>
        <mxCell id="s6z-DPjrk-eeVtkhGJ_P-545" value="" style="rounded=1;whiteSpace=wrap;html=1;fillColor=#6a00ff;fontColor=#ffffff;strokeColor=#3700CC;" vertex="1" parent="1">
          <mxGeometry x="1580" y="399.92" width="130" height="210" as="geometry" />
        </mxCell>
        <mxCell id="s6z-DPjrk-eeVtkhGJ_P-551" style="edgeStyle=orthogonalEdgeStyle;rounded=0;orthogonalLoop=1;jettySize=auto;html=1;entryX=0;entryY=0.819;entryDx=0;entryDy=0;entryPerimeter=0;" edge="1" parent="1" source="s6z-DPjrk-eeVtkhGJ_P-546" target="s6z-DPjrk-eeVtkhGJ_P-550">
          <mxGeometry relative="1" as="geometry">
            <mxPoint x="1560" y="390" as="targetPoint" />
            <Array as="points">
              <mxPoint x="1560" y="430" />
            </Array>
          </mxGeometry>
        </mxCell>
        <mxCell id="s6z-DPjrk-eeVtkhGJ_P-546" value="gatheringPlaceName" style="ellipse;whiteSpace=wrap;html=1;" vertex="1" parent="1">
          <mxGeometry x="1585" y="409.94" width="120" height="39.96" as="geometry" />
        </mxCell>
        <mxCell id="s6z-DPjrk-eeVtkhGJ_P-552" style="edgeStyle=orthogonalEdgeStyle;rounded=0;orthogonalLoop=1;jettySize=auto;html=1;endArrow=none;endFill=0;" edge="1" parent="1" source="s6z-DPjrk-eeVtkhGJ_P-547">
          <mxGeometry relative="1" as="geometry">
            <mxPoint x="1560" y="430" as="targetPoint" />
          </mxGeometry>
        </mxCell>
        <mxCell id="s6z-DPjrk-eeVtkhGJ_P-547" value="inGatheringPlace" style="ellipse;whiteSpace=wrap;html=1;" vertex="1" parent="1">
          <mxGeometry x="1585" y="459.94" width="120" height="39.96" as="geometry" />
        </mxCell>
        <mxCell id="s6z-DPjrk-eeVtkhGJ_P-553" style="edgeStyle=orthogonalEdgeStyle;rounded=0;orthogonalLoop=1;jettySize=auto;html=1;endArrow=none;endFill=0;" edge="1" parent="1" source="s6z-DPjrk-eeVtkhGJ_P-548">
          <mxGeometry relative="1" as="geometry">
            <mxPoint x="1560" y="480" as="targetPoint" />
          </mxGeometry>
        </mxCell>
        <mxCell id="s6z-DPjrk-eeVtkhGJ_P-548" value="outGatheringPlace" style="ellipse;whiteSpace=wrap;html=1;" vertex="1" parent="1">
          <mxGeometry x="1585" y="509.94" width="120" height="39.96" as="geometry" />
        </mxCell>
        <mxCell id="s6z-DPjrk-eeVtkhGJ_P-554" style="edgeStyle=orthogonalEdgeStyle;rounded=0;orthogonalLoop=1;jettySize=auto;html=1;endArrow=none;endFill=0;" edge="1" parent="1" source="s6z-DPjrk-eeVtkhGJ_P-549">
          <mxGeometry relative="1" as="geometry">
            <mxPoint x="1560" y="530.0000000000001" as="targetPoint" />
          </mxGeometry>
        </mxCell>
        <mxCell id="s6z-DPjrk-eeVtkhGJ_P-549" value="outGatheringPlace" style="ellipse;whiteSpace=wrap;html=1;" vertex="1" parent="1">
          <mxGeometry x="1585" y="559.9399999999999" width="120" height="39.96" as="geometry" />
        </mxCell>
        <mxCell id="s6z-DPjrk-eeVtkhGJ_P-550" value="Gathering" style="rounded=1;whiteSpace=wrap;html=1;fillColor=#d80073;fontColor=#ffffff;strokeColor=#A50040;" vertex="1" parent="1">
          <mxGeometry x="1560" y="319.91999999999996" width="120" height="60" as="geometry" />
        </mxCell>
        <mxCell id="s6z-DPjrk-eeVtkhGJ_P-555" value="" style="rounded=1;whiteSpace=wrap;html=1;fillColor=#a20025;fontColor=#ffffff;strokeColor=#6F0000;" vertex="1" parent="1">
          <mxGeometry x="1780" y="400" width="130" height="110" as="geometry" />
        </mxCell>
        <mxCell id="s6z-DPjrk-eeVtkhGJ_P-556" value="startDatePayFees" style="ellipse;whiteSpace=wrap;html=1;" vertex="1" parent="1">
          <mxGeometry x="1785" y="409.96000000000004" width="120" height="39.96" as="geometry" />
        </mxCell>
        <mxCell id="s6z-DPjrk-eeVtkhGJ_P-560" style="edgeStyle=orthogonalEdgeStyle;rounded=0;orthogonalLoop=1;jettySize=auto;html=1;endArrow=none;endFill=0;" edge="1" parent="1" source="s6z-DPjrk-eeVtkhGJ_P-557">
          <mxGeometry relative="1" as="geometry">
            <mxPoint x="1760" y="430" as="targetPoint" />
          </mxGeometry>
        </mxCell>
        <mxCell id="s6z-DPjrk-eeVtkhGJ_P-557" value="endDatePayFees" style="ellipse;whiteSpace=wrap;html=1;" vertex="1" parent="1">
          <mxGeometry x="1785" y="459.96000000000004" width="120" height="39.96" as="geometry" />
        </mxCell>
        <mxCell id="s6z-DPjrk-eeVtkhGJ_P-558" value="PayFeesActive" style="rounded=1;whiteSpace=wrap;html=1;fillColor=#a20025;fontColor=#ffffff;strokeColor=#6F0000;" vertex="1" parent="1">
          <mxGeometry x="1760" y="319.91999999999996" width="120" height="60" as="geometry" />
        </mxCell>
        <mxCell id="s6z-DPjrk-eeVtkhGJ_P-559" style="edgeStyle=orthogonalEdgeStyle;rounded=0;orthogonalLoop=1;jettySize=auto;html=1;entryX=0.004;entryY=0.913;entryDx=0;entryDy=0;entryPerimeter=0;" edge="1" parent="1" source="s6z-DPjrk-eeVtkhGJ_P-556" target="s6z-DPjrk-eeVtkhGJ_P-558">
          <mxGeometry relative="1" as="geometry">
            <Array as="points">
              <mxPoint x="1760" y="430" />
              <mxPoint x="1760" y="375" />
            </Array>
          </mxGeometry>
        </mxCell>
        <mxCell id="s6z-DPjrk-eeVtkhGJ_P-561" value="" style="rounded=1;whiteSpace=wrap;html=1;fillColor=#a0522d;fontColor=#ffffff;strokeColor=#6D1F00;" vertex="1" parent="1">
          <mxGeometry x="1775" y="639.92" width="130" height="160" as="geometry" />
        </mxCell>
        <mxCell id="s6z-DPjrk-eeVtkhGJ_P-566" style="edgeStyle=orthogonalEdgeStyle;rounded=0;orthogonalLoop=1;jettySize=auto;html=1;entryX=0;entryY=1;entryDx=0;entryDy=0;" edge="1" parent="1" source="s6z-DPjrk-eeVtkhGJ_P-562" target="s6z-DPjrk-eeVtkhGJ_P-565">
          <mxGeometry relative="1" as="geometry">
            <Array as="points">
              <mxPoint x="1760" y="670" />
            </Array>
          </mxGeometry>
        </mxCell>
        <mxCell id="s6z-DPjrk-eeVtkhGJ_P-562" value="&lt;div&gt;guideFirstName&lt;/div&gt;" style="ellipse;whiteSpace=wrap;html=1;" vertex="1" parent="1">
          <mxGeometry x="1780" y="649.9399999999999" width="120" height="39.96" as="geometry" />
        </mxCell>
        <mxCell id="s6z-DPjrk-eeVtkhGJ_P-567" style="edgeStyle=orthogonalEdgeStyle;rounded=0;orthogonalLoop=1;jettySize=auto;html=1;endArrow=none;endFill=0;" edge="1" parent="1" source="s6z-DPjrk-eeVtkhGJ_P-563">
          <mxGeometry relative="1" as="geometry">
            <mxPoint x="1760" y="670" as="targetPoint" />
          </mxGeometry>
        </mxCell>
        <mxCell id="s6z-DPjrk-eeVtkhGJ_P-563" value="&lt;div&gt;guideLastName&lt;/div&gt;" style="ellipse;whiteSpace=wrap;html=1;" vertex="1" parent="1">
          <mxGeometry x="1780" y="699.9399999999999" width="120" height="39.96" as="geometry" />
        </mxCell>
        <mxCell id="s6z-DPjrk-eeVtkhGJ_P-568" style="edgeStyle=orthogonalEdgeStyle;rounded=0;orthogonalLoop=1;jettySize=auto;html=1;endArrow=none;endFill=0;" edge="1" parent="1" source="s6z-DPjrk-eeVtkhGJ_P-564">
          <mxGeometry relative="1" as="geometry">
            <mxPoint x="1760" y="720" as="targetPoint" />
          </mxGeometry>
        </mxCell>
        <mxCell id="s6z-DPjrk-eeVtkhGJ_P-564" value="&lt;div&gt;guidePhone&lt;/div&gt;" style="ellipse;whiteSpace=wrap;html=1;" vertex="1" parent="1">
          <mxGeometry x="1780" y="749.9399999999999" width="120" height="39.96" as="geometry" />
        </mxCell>
        <mxCell id="s6z-DPjrk-eeVtkhGJ_P-565" value="Guide" style="rounded=1;whiteSpace=wrap;html=1;fillColor=#a0522d;fontColor=#ffffff;strokeColor=#6D1F00;" vertex="1" parent="1">
          <mxGeometry x="1760" y="559.9199999999998" width="120" height="60" as="geometry" />
        </mxCell>
        <mxCell id="s6z-DPjrk-eeVtkhGJ_P-569" value="Basic Relationships" style="text;whiteSpace=wrap;" vertex="1" parent="1">
          <mxGeometry x="2520" y="10" width="140" height="40" as="geometry" />
        </mxCell>
        <mxCell id="s6z-DPjrk-eeVtkhGJ_P-570" value="TouristInfo" style="rounded=1;whiteSpace=wrap;html=1;fillColor=#e1d5e7;strokeColor=#9673a6;" vertex="1" parent="1">
          <mxGeometry x="2840" y="184.94" width="90" height="49.94" as="geometry" />
        </mxCell>
        <mxCell id="s6z-DPjrk-eeVtkhGJ_P-571" value="" style="rounded=1;whiteSpace=wrap;html=1;fillColor=#e1d5e7;strokeColor=#9673a6;" vertex="1" parent="1">
          <mxGeometry x="2860" y="264.90000000000003" width="140" height="310.04" as="geometry" />
        </mxCell>
        <mxCell id="s6z-DPjrk-eeVtkhGJ_P-572" style="edgeStyle=orthogonalEdgeStyle;rounded=0;orthogonalLoop=1;jettySize=auto;html=1;" edge="1" parent="1" source="s6z-DPjrk-eeVtkhGJ_P-573">
          <mxGeometry relative="1" as="geometry">
            <mxPoint x="2840" y="224.94" as="targetPoint" />
          </mxGeometry>
        </mxCell>
        <mxCell id="s6z-DPjrk-eeVtkhGJ_P-573" value="touristFirstName" style="ellipse;whiteSpace=wrap;html=1;" vertex="1" parent="1">
          <mxGeometry x="2870" y="274.9" width="120" height="39.96" as="geometry" />
        </mxCell>
        <mxCell id="s6z-DPjrk-eeVtkhGJ_P-574" style="edgeStyle=orthogonalEdgeStyle;rounded=0;orthogonalLoop=1;jettySize=auto;html=1;endArrow=none;endFill=0;" edge="1" parent="1" source="s6z-DPjrk-eeVtkhGJ_P-575">
          <mxGeometry relative="1" as="geometry">
            <mxPoint x="2840" y="294.94" as="targetPoint" />
          </mxGeometry>
        </mxCell>
        <mxCell id="s6z-DPjrk-eeVtkhGJ_P-575" value="touristLastName" style="ellipse;whiteSpace=wrap;html=1;" vertex="1" parent="1">
          <mxGeometry x="2870" y="324.86" width="120" height="39.96" as="geometry" />
        </mxCell>
        <mxCell id="s6z-DPjrk-eeVtkhGJ_P-576" style="edgeStyle=orthogonalEdgeStyle;rounded=0;orthogonalLoop=1;jettySize=auto;html=1;endArrow=none;endFill=0;" edge="1" parent="1" source="s6z-DPjrk-eeVtkhGJ_P-577">
          <mxGeometry relative="1" as="geometry">
            <mxPoint x="2840" y="344.94" as="targetPoint" />
          </mxGeometry>
        </mxCell>
        <mxCell id="s6z-DPjrk-eeVtkhGJ_P-577" value="touristPhoneNumber" style="ellipse;whiteSpace=wrap;html=1;" vertex="1" parent="1">
          <mxGeometry x="2870" y="374.86" width="120" height="39.96" as="geometry" />
        </mxCell>
        <mxCell id="s6z-DPjrk-eeVtkhGJ_P-578" style="edgeStyle=orthogonalEdgeStyle;rounded=0;orthogonalLoop=1;jettySize=auto;html=1;endArrow=none;endFill=0;" edge="1" parent="1" source="s6z-DPjrk-eeVtkhGJ_P-579">
          <mxGeometry relative="1" as="geometry">
            <mxPoint x="2840" y="394.94" as="targetPoint" />
          </mxGeometry>
        </mxCell>
        <mxCell id="s6z-DPjrk-eeVtkhGJ_P-579" value="touristClass" style="ellipse;whiteSpace=wrap;html=1;" vertex="1" parent="1">
          <mxGeometry x="2870" y="424.86" width="120" height="39.96" as="geometry" />
        </mxCell>
        <mxCell id="s6z-DPjrk-eeVtkhGJ_P-580" style="edgeStyle=orthogonalEdgeStyle;rounded=0;orthogonalLoop=1;jettySize=auto;html=1;endArrow=none;endFill=0;" edge="1" parent="1" source="s6z-DPjrk-eeVtkhGJ_P-581">
          <mxGeometry relative="1" as="geometry">
            <mxPoint x="2840" y="444.94" as="targetPoint" />
          </mxGeometry>
        </mxCell>
        <mxCell id="s6z-DPjrk-eeVtkhGJ_P-581" value="tourist(No/NickName)" style="ellipse;whiteSpace=wrap;html=1;" vertex="1" parent="1">
          <mxGeometry x="2870" y="474.86" width="120" height="39.96" as="geometry" />
        </mxCell>
        <mxCell id="s6z-DPjrk-eeVtkhGJ_P-582" style="edgeStyle=orthogonalEdgeStyle;rounded=0;orthogonalLoop=1;jettySize=auto;html=1;endArrow=none;endFill=0;" edge="1" parent="1" source="s6z-DPjrk-eeVtkhGJ_P-583">
          <mxGeometry relative="1" as="geometry">
            <mxPoint x="2840" y="494.94" as="targetPoint" />
          </mxGeometry>
        </mxCell>
        <mxCell id="s6z-DPjrk-eeVtkhGJ_P-583" value="touristPaymentStatus" style="ellipse;whiteSpace=wrap;html=1;" vertex="1" parent="1">
          <mxGeometry x="2870" y="524.86" width="120" height="39.96" as="geometry" />
        </mxCell>
        <mxCell id="s6z-DPjrk-eeVtkhGJ_P-584" value="" style="rounded=1;whiteSpace=wrap;html=1;fillColor=#008a00;fontColor=#ffffff;strokeColor=#005700;" vertex="1" parent="1">
          <mxGeometry x="2600" y="644.8199999999999" width="140" height="410.1" as="geometry" />
        </mxCell>
        <mxCell id="s6z-DPjrk-eeVtkhGJ_P-585" style="edgeStyle=orthogonalEdgeStyle;rounded=0;orthogonalLoop=1;jettySize=auto;html=1;entryX=0;entryY=1;entryDx=0;entryDy=0;" edge="1" parent="1" source="s6z-DPjrk-eeVtkhGJ_P-586" target="s6z-DPjrk-eeVtkhGJ_P-601">
          <mxGeometry relative="1" as="geometry">
            <Array as="points">
              <mxPoint x="2580" y="674.8199999999999" />
            </Array>
          </mxGeometry>
        </mxCell>
        <mxCell id="s6z-DPjrk-eeVtkhGJ_P-586" value="ticketType" style="ellipse;whiteSpace=wrap;html=1;" vertex="1" parent="1">
          <mxGeometry x="2610" y="654.8800000000001" width="120" height="39.96" as="geometry" />
        </mxCell>
        <mxCell id="s6z-DPjrk-eeVtkhGJ_P-587" style="edgeStyle=orthogonalEdgeStyle;rounded=0;orthogonalLoop=1;jettySize=auto;html=1;endArrow=none;endFill=0;" edge="1" parent="1" source="s6z-DPjrk-eeVtkhGJ_P-588">
          <mxGeometry relative="1" as="geometry">
            <mxPoint x="2580" y="674.8199999999999" as="targetPoint" />
          </mxGeometry>
        </mxCell>
        <mxCell id="s6z-DPjrk-eeVtkhGJ_P-588" value="ticketNo" style="ellipse;whiteSpace=wrap;html=1;" vertex="1" parent="1">
          <mxGeometry x="2610" y="704.8800000000001" width="120" height="39.96" as="geometry" />
        </mxCell>
        <mxCell id="s6z-DPjrk-eeVtkhGJ_P-589" style="edgeStyle=orthogonalEdgeStyle;rounded=0;orthogonalLoop=1;jettySize=auto;html=1;endArrow=none;endFill=0;" edge="1" parent="1" source="s6z-DPjrk-eeVtkhGJ_P-590">
          <mxGeometry relative="1" as="geometry">
            <mxPoint x="2580" y="724.8199999999999" as="targetPoint" />
          </mxGeometry>
        </mxCell>
        <mxCell id="s6z-DPjrk-eeVtkhGJ_P-590" value="ticketDateToReg" style="ellipse;whiteSpace=wrap;html=1;" vertex="1" parent="1">
          <mxGeometry x="2610" y="754.8800000000001" width="120" height="39.96" as="geometry" />
        </mxCell>
        <mxCell id="s6z-DPjrk-eeVtkhGJ_P-591" style="edgeStyle=orthogonalEdgeStyle;rounded=0;orthogonalLoop=1;jettySize=auto;html=1;endArrow=none;endFill=0;" edge="1" parent="1" source="s6z-DPjrk-eeVtkhGJ_P-592">
          <mxGeometry relative="1" as="geometry">
            <mxPoint x="2580" y="774.8199999999999" as="targetPoint" />
          </mxGeometry>
        </mxCell>
        <mxCell id="s6z-DPjrk-eeVtkhGJ_P-592" value="ticketGroupNo" style="ellipse;whiteSpace=wrap;html=1;" vertex="1" parent="1">
          <mxGeometry x="2610" y="804.8800000000001" width="120" height="39.96" as="geometry" />
        </mxCell>
        <mxCell id="s6z-DPjrk-eeVtkhGJ_P-593" style="edgeStyle=orthogonalEdgeStyle;rounded=0;orthogonalLoop=1;jettySize=auto;html=1;endArrow=none;endFill=0;" edge="1" parent="1" source="s6z-DPjrk-eeVtkhGJ_P-594">
          <mxGeometry relative="1" as="geometry">
            <mxPoint x="2580" y="824.8199999999999" as="targetPoint" />
          </mxGeometry>
        </mxCell>
        <mxCell id="s6z-DPjrk-eeVtkhGJ_P-594" value="ticketStartTime" style="ellipse;whiteSpace=wrap;html=1;" vertex="1" parent="1">
          <mxGeometry x="2610" y="854.8800000000001" width="120" height="39.96" as="geometry" />
        </mxCell>
        <mxCell id="s6z-DPjrk-eeVtkhGJ_P-595" style="edgeStyle=orthogonalEdgeStyle;rounded=0;orthogonalLoop=1;jettySize=auto;html=1;endArrow=none;endFill=0;" edge="1" parent="1" source="s6z-DPjrk-eeVtkhGJ_P-596">
          <mxGeometry relative="1" as="geometry">
            <mxPoint x="2580" y="874.8199999999999" as="targetPoint" />
          </mxGeometry>
        </mxCell>
        <mxCell id="s6z-DPjrk-eeVtkhGJ_P-596" value="ticketStartTime" style="ellipse;whiteSpace=wrap;html=1;" vertex="1" parent="1">
          <mxGeometry x="2610" y="904.8800000000001" width="120" height="39.96" as="geometry" />
        </mxCell>
        <mxCell id="s6z-DPjrk-eeVtkhGJ_P-597" style="edgeStyle=orthogonalEdgeStyle;rounded=0;orthogonalLoop=1;jettySize=auto;html=1;endArrow=none;endFill=0;" edge="1" parent="1" source="s6z-DPjrk-eeVtkhGJ_P-598">
          <mxGeometry relative="1" as="geometry">
            <mxPoint x="2580" y="924.8199999999999" as="targetPoint" />
          </mxGeometry>
        </mxCell>
        <mxCell id="s6z-DPjrk-eeVtkhGJ_P-598" value="ticketEndTime" style="ellipse;whiteSpace=wrap;html=1;" vertex="1" parent="1">
          <mxGeometry x="2610" y="954.8800000000001" width="120" height="39.96" as="geometry" />
        </mxCell>
        <mxCell id="s6z-DPjrk-eeVtkhGJ_P-599" style="edgeStyle=orthogonalEdgeStyle;rounded=0;orthogonalLoop=1;jettySize=auto;html=1;endArrow=none;endFill=0;" edge="1" parent="1" source="s6z-DPjrk-eeVtkhGJ_P-600">
          <mxGeometry relative="1" as="geometry">
            <mxPoint x="2580" y="974.8199999999999" as="targetPoint" />
          </mxGeometry>
        </mxCell>
        <mxCell id="s6z-DPjrk-eeVtkhGJ_P-600" value="ticketDuration" style="ellipse;whiteSpace=wrap;html=1;" vertex="1" parent="1">
          <mxGeometry x="2610" y="1004.8800000000001" width="120" height="39.96" as="geometry" />
        </mxCell>
        <mxCell id="s6z-DPjrk-eeVtkhGJ_P-601" value="Ticket" style="rounded=1;whiteSpace=wrap;html=1;fillColor=#008a00;fontColor=#ffffff;strokeColor=#005700;" vertex="1" parent="1">
          <mxGeometry x="2580" y="564.8199999999999" width="90" height="60" as="geometry" />
        </mxCell>
        <mxCell id="s6z-DPjrk-eeVtkhGJ_P-603" style="edgeStyle=orthogonalEdgeStyle;rounded=0;orthogonalLoop=1;jettySize=auto;html=1;entryX=0;entryY=0.5;entryDx=0;entryDy=0;" edge="1" parent="1" source="s6z-DPjrk-eeVtkhGJ_P-602" target="s6z-DPjrk-eeVtkhGJ_P-570">
          <mxGeometry relative="1" as="geometry" />
        </mxCell>
        <mxCell id="s6z-DPjrk-eeVtkhGJ_P-604" style="edgeStyle=orthogonalEdgeStyle;rounded=0;orthogonalLoop=1;jettySize=auto;html=1;entryX=0.5;entryY=0;entryDx=0;entryDy=0;" edge="1" parent="1" source="s6z-DPjrk-eeVtkhGJ_P-602" target="s6z-DPjrk-eeVtkhGJ_P-601">
          <mxGeometry relative="1" as="geometry" />
        </mxCell>
        <mxCell id="s6z-DPjrk-eeVtkhGJ_P-602" value="By ticket" style="shape=rhombus;perimeter=rhombusPerimeter;whiteSpace=wrap;html=1;align=center;" vertex="1" parent="1">
          <mxGeometry x="2650" y="349.88" width="120" height="60" as="geometry" />
        </mxCell>
        <mxCell id="s6z-DPjrk-eeVtkhGJ_P-605" value="Guides" style="rounded=1;whiteSpace=wrap;html=1;" vertex="1" parent="1">
          <mxGeometry x="2100" y="630" width="120" height="60" as="geometry" />
        </mxCell>
      </root>
    </mxGraphModel>
  </diagram>
</mxfile>
